G04 #@! TF.GenerationSoftware,KiCad,Pcbnew,(2017-11-22 revision 78366f8f0)-master*
G04 #@! TF.CreationDate,2018-01-05T15:25:17+02:00*
G04 #@! TF.ProjectId,BB-ADS1262-Rev.A,42422D414453313236322D5265762E41,rev?*
G04 #@! TF.SameCoordinates,Original*
G04 #@! TF.FileFunction,Paste,Top*
G04 #@! TF.FilePolarity,Positive*
%FSLAX46Y46*%
G04 Gerber Fmt 4.6, Leading zero omitted, Abs format (unit mm)*
G04 Created by KiCad (PCBNEW (2017-11-22 revision 78366f8f0)-master) date Fri Jan  5 15:25:17 2018*
%MOMM*%
%LPD*%
G01*
G04 APERTURE LIST*
%ADD10C,0.254000*%
%ADD11R,1.600000X0.325000*%
%ADD12R,1.016000X1.016000*%
%ADD13R,1.098400X1.098400*%
%ADD14R,0.914400X0.914400*%
%ADD15R,3.000000X2.000000*%
%ADD16R,0.550000X1.200000*%
%ADD17R,1.200000X0.550000*%
G04 APERTURE END LIST*
D10*
X54610000Y-64770000D02*
X54610000Y-46990000D01*
X101600000Y-64770000D02*
X54610000Y-64770000D01*
X101600000Y-46990000D02*
X101600000Y-64770000D01*
X54610000Y-46990000D02*
X101600000Y-46990000D01*
D11*
X77730000Y-60105000D03*
X77730000Y-59455000D03*
X77730000Y-58805000D03*
X77730000Y-58155000D03*
X77730000Y-57505000D03*
X77730000Y-56855000D03*
X77730000Y-56205000D03*
X77730000Y-55555000D03*
X77730000Y-54905000D03*
X77730000Y-54255000D03*
X77730000Y-53605000D03*
X77730000Y-52955000D03*
X77730000Y-52305000D03*
X77730000Y-51655000D03*
X72130000Y-51655000D03*
X72130000Y-52305000D03*
X72130000Y-52955000D03*
X72130000Y-53605000D03*
X72130000Y-54255000D03*
X72130000Y-54905000D03*
X72130000Y-55555000D03*
X72130000Y-56205000D03*
X72130000Y-56855000D03*
X72130000Y-57505000D03*
X72130000Y-58155000D03*
X72130000Y-58805000D03*
X72130000Y-59455000D03*
X72130000Y-60105000D03*
D12*
X83439000Y-56261000D03*
X81661000Y-56261000D03*
X81661000Y-54356000D03*
X83439000Y-54356000D03*
X81661000Y-58166000D03*
X83439000Y-58166000D03*
X66421000Y-52705000D03*
X68199000Y-52705000D03*
X64389000Y-54610000D03*
X62611000Y-54610000D03*
X68199000Y-54610000D03*
X66421000Y-54610000D03*
X62611000Y-52705000D03*
X64389000Y-52705000D03*
X98869500Y-48450500D03*
X97091500Y-48450500D03*
X97917000Y-58166000D03*
X96139000Y-58166000D03*
X96139000Y-59944000D03*
X97917000Y-59944000D03*
X90017600Y-60782200D03*
X90017600Y-59004200D03*
D13*
X93646500Y-63436500D03*
X90376500Y-63436500D03*
X97901000Y-55880000D03*
X94631000Y-55880000D03*
D14*
X99695000Y-58166000D03*
X99695000Y-59944000D03*
D15*
X90487500Y-48298500D03*
X90487500Y-54698500D03*
D12*
X99695000Y-56451500D03*
X99695000Y-54673500D03*
X99695000Y-51117500D03*
X99695000Y-52895500D03*
X91795600Y-60782200D03*
X91795600Y-59004200D03*
X90017600Y-57353200D03*
X91795600Y-57353200D03*
D16*
X95189000Y-53179600D03*
X96139000Y-53179600D03*
X97089000Y-53179600D03*
X97089000Y-50579400D03*
X96139000Y-50579400D03*
X95189000Y-50579400D03*
D17*
X95347000Y-61534000D03*
X95347000Y-63434000D03*
X97947000Y-61534000D03*
X97947000Y-62484000D03*
X97947000Y-63434000D03*
M02*
