G04 #@! TF.GenerationSoftware,KiCad,Pcbnew,(2017-11-22 revision 78366f8f0)-master*
G04 #@! TF.CreationDate,2018-01-05T15:31:28+02:00*
G04 #@! TF.ProjectId,BB-ADS1262-Rev.A,42422D414453313236322D5265762E41,rev?*
G04 #@! TF.SameCoordinates,Original*
G04 #@! TF.FileFunction,Copper,L1,Top,Signal*
G04 #@! TF.FilePolarity,Positive*
%FSLAX46Y46*%
G04 Gerber Fmt 4.6, Leading zero omitted, Abs format (unit mm)*
G04 Created by KiCad (PCBNEW (2017-11-22 revision 78366f8f0)-master) date Fri Jan  5 15:31:28 2018*
%MOMM*%
%LPD*%
G01*
G04 APERTURE LIST*
%ADD10C,0.254000*%
%ADD11C,0.900000*%
%ADD12C,1.778000*%
%ADD13R,1.778000X1.778000*%
%ADD14R,1.016000X1.016000*%
%ADD15R,5.080000X1.524000*%
%ADD16R,1.600000X0.325000*%
%ADD17C,1.000000*%
%ADD18R,1.200000X1.200000*%
%ADD19R,3.000000X2.000000*%
%ADD20R,0.550000X1.200000*%
%ADD21R,1.200000X0.550000*%
%ADD22C,0.800000*%
%ADD23C,0.762000*%
%ADD24C,0.381000*%
%ADD25C,0.508000*%
%ADD26C,1.016000*%
%ADD27C,0.250000*%
G04 APERTURE END LIST*
D10*
X64389000Y-59055000D02*
X62611000Y-59055000D01*
D11*
X89154000Y-62103000D03*
X87249000Y-48006000D03*
X87630000Y-55245000D03*
X92710000Y-55880000D03*
X94615000Y-59055000D03*
X100330000Y-49530000D03*
X90424000Y-52324000D03*
X91948000Y-51308000D03*
X88900000Y-51308000D03*
X96139000Y-51866800D03*
X88976200Y-59004200D03*
X66116200Y-50139600D03*
X81686400Y-51358800D03*
X85090000Y-51358800D03*
D12*
X87630000Y-63500000D03*
X82550000Y-63500000D03*
X85090000Y-63500000D03*
X80010000Y-63500000D03*
X77470000Y-63500000D03*
X72390000Y-63500000D03*
X74930000Y-63500000D03*
X69850000Y-63500000D03*
X67310000Y-63500000D03*
D13*
X57150000Y-63500000D03*
D12*
X59690000Y-63500000D03*
X62230000Y-63500000D03*
X64770000Y-63500000D03*
D11*
X84582000Y-54356000D03*
X84582000Y-56261000D03*
X85344000Y-58928000D03*
X80264000Y-59055000D03*
X66395600Y-51663600D03*
D14*
X64389000Y-59055000D03*
X62611000Y-59055000D03*
D11*
X71120000Y-61976000D03*
X73660000Y-61976000D03*
X59690000Y-48260000D03*
X73736200Y-51968400D03*
X65405000Y-54610000D03*
X75946000Y-51308000D03*
X61849000Y-60833000D03*
X66040000Y-59055000D03*
X68072000Y-57150000D03*
X80264000Y-61468000D03*
X77597000Y-61468000D03*
X74295000Y-57912000D03*
X74295000Y-55499000D03*
D15*
X57150000Y-60960000D03*
X57150000Y-58420000D03*
X57150000Y-55880000D03*
X57150000Y-53340000D03*
X57150000Y-50800000D03*
D16*
X77730000Y-60105000D03*
X77730000Y-59455000D03*
X77730000Y-58805000D03*
X77730000Y-58155000D03*
X77730000Y-57505000D03*
X77730000Y-56855000D03*
X77730000Y-56205000D03*
X77730000Y-55555000D03*
X77730000Y-54905000D03*
X77730000Y-54255000D03*
X77730000Y-53605000D03*
X77730000Y-52955000D03*
X77730000Y-52305000D03*
X77730000Y-51655000D03*
X72130000Y-51655000D03*
X72130000Y-52305000D03*
X72130000Y-52955000D03*
X72130000Y-53605000D03*
X72130000Y-54255000D03*
X72130000Y-54905000D03*
X72130000Y-55555000D03*
X72130000Y-56205000D03*
X72130000Y-56855000D03*
X72130000Y-57505000D03*
X72130000Y-58155000D03*
X72130000Y-58805000D03*
X72130000Y-59455000D03*
X72130000Y-60105000D03*
D17*
X56769000Y-48514000D03*
D12*
X85090000Y-48260000D03*
X82550000Y-48260000D03*
X77470000Y-48260000D03*
X80010000Y-48260000D03*
X74930000Y-48260000D03*
X72390000Y-48260000D03*
D13*
X62230000Y-48260000D03*
D12*
X64770000Y-48260000D03*
X67310000Y-48260000D03*
X69850000Y-48260000D03*
D14*
X83439000Y-56261000D03*
X81661000Y-56261000D03*
X81661000Y-54356000D03*
X83439000Y-54356000D03*
X81661000Y-58166000D03*
X83439000Y-58166000D03*
X66421000Y-52705000D03*
X68199000Y-52705000D03*
X64389000Y-54610000D03*
X62611000Y-54610000D03*
X68199000Y-54610000D03*
X66421000Y-54610000D03*
X62611000Y-52705000D03*
X64389000Y-52705000D03*
X98869500Y-48450500D03*
X97091500Y-48450500D03*
X97917000Y-58166000D03*
X96139000Y-58166000D03*
X96139000Y-59944000D03*
X97917000Y-59944000D03*
X90017600Y-60782200D03*
X90017600Y-59004200D03*
D18*
X93646500Y-63436500D03*
X90376500Y-63436500D03*
X97901000Y-55880000D03*
X94631000Y-55880000D03*
D14*
X99695000Y-58166000D03*
X99695000Y-59944000D03*
D19*
X90487500Y-48298500D03*
X90487500Y-54698500D03*
D14*
X99695000Y-56451500D03*
X99695000Y-54673500D03*
X99695000Y-51117500D03*
X99695000Y-52895500D03*
X91795600Y-60782200D03*
X91795600Y-59004200D03*
X90017600Y-57353200D03*
X91795600Y-57353200D03*
D20*
X95189000Y-53179600D03*
X96139000Y-53179600D03*
X97089000Y-53179600D03*
X97089000Y-50579400D03*
X96139000Y-50579400D03*
X95189000Y-50579400D03*
D21*
X95347000Y-61534000D03*
X95347000Y-63434000D03*
X97947000Y-61534000D03*
X97947000Y-62484000D03*
X97947000Y-63434000D03*
D22*
X85598000Y-55346600D03*
X80645000Y-56388000D03*
X75140641Y-54906548D03*
X76126901Y-52900200D03*
X75289237Y-53940093D03*
X60833000Y-59182000D03*
X75329989Y-52234409D03*
X60890197Y-57696065D03*
X90525600Y-49657000D03*
D23*
X63600204Y-50139600D02*
X66116200Y-50139600D01*
X62230000Y-49657000D02*
X62230000Y-48260000D01*
X61849000Y-50800000D02*
X57150000Y-50800000D01*
X61849000Y-50038000D02*
X61849000Y-50800000D01*
X62230000Y-49657000D02*
X61849000Y-50038000D01*
X63600204Y-50139600D02*
X63117604Y-49657000D01*
X63117604Y-49657000D02*
X62230000Y-49657000D01*
D24*
X69570000Y-54255000D02*
X69215000Y-54610000D01*
X72130000Y-54255000D02*
X69570000Y-54255000D01*
X69215000Y-54610000D02*
X68199000Y-54610000D01*
X68199000Y-53721000D02*
X68072000Y-53594000D01*
X68199000Y-54610000D02*
X68199000Y-53721000D01*
X62738000Y-53594000D02*
X62611000Y-53721000D01*
X68072000Y-53594000D02*
X62738000Y-53594000D01*
D25*
X62611000Y-53721000D02*
X62611000Y-54610000D01*
X62611000Y-52705000D02*
X62611000Y-53721000D01*
X61849000Y-50800000D02*
X62611000Y-51562000D01*
X62611000Y-51562000D02*
X62611000Y-52705000D01*
D26*
X87249000Y-48006000D02*
X85344000Y-48006000D01*
X85344000Y-48006000D02*
X85090000Y-48260000D01*
X85090000Y-51358800D02*
X88849200Y-51358800D01*
X88849200Y-51358800D02*
X88900000Y-51308000D01*
X81686400Y-51358800D02*
X85090000Y-51358800D01*
D23*
X96139000Y-54356000D02*
X96139000Y-58166000D01*
D25*
X96139000Y-53179600D02*
X96139000Y-54356000D01*
X97947000Y-62484000D02*
X96951800Y-62484000D01*
D23*
X96697800Y-62230000D02*
X96697800Y-60502800D01*
X96697800Y-60502800D02*
X96139000Y-59944000D01*
X96951800Y-62484000D02*
X96697800Y-62230000D01*
X96139000Y-58166000D02*
X96139000Y-59944000D01*
X98907600Y-51117500D02*
X99695000Y-51117500D01*
X98425000Y-51117500D02*
X98907600Y-51117500D01*
D25*
X98869500Y-48450500D02*
X98869500Y-51079400D01*
X98869500Y-51079400D02*
X98907600Y-51117500D01*
D23*
X96139000Y-51866800D02*
X94056200Y-51866800D01*
D25*
X96139000Y-53179600D02*
X96139000Y-51866800D01*
D23*
X98221800Y-51866800D02*
X98221800Y-51320700D01*
X98221800Y-51320700D02*
X98425000Y-51117500D01*
X96139000Y-51866800D02*
X98221800Y-51866800D01*
D24*
X72096000Y-51689000D02*
X66421000Y-51689000D01*
X72130000Y-51655000D02*
X72096000Y-51689000D01*
D25*
X66421000Y-52705000D02*
X66421000Y-51689000D01*
X64262000Y-57658000D02*
X62992000Y-57658000D01*
X62992000Y-57658000D02*
X62611000Y-58039000D01*
X62611000Y-58039000D02*
X62611000Y-59055000D01*
X64389000Y-56515000D02*
X64389000Y-57531000D01*
X64389000Y-57531000D02*
X64262000Y-57658000D01*
X64389000Y-54610000D02*
X64389000Y-56515000D01*
X64389000Y-54610000D02*
X66421000Y-54610000D01*
D24*
X73660000Y-53594000D02*
X73152000Y-53594000D01*
X73152000Y-53594000D02*
X73141000Y-53605000D01*
X73141000Y-53605000D02*
X72130000Y-53605000D01*
X73660000Y-52004000D02*
X73660000Y-53594000D01*
X72130000Y-51655000D02*
X73311000Y-51655000D01*
X73311000Y-51655000D02*
X73660000Y-52004000D01*
D25*
X91795600Y-60782200D02*
X90017600Y-60782200D01*
X90376500Y-63436500D02*
X87693500Y-63436500D01*
X87693500Y-63436500D02*
X87630000Y-63500000D01*
X87630000Y-60807600D02*
X87630000Y-57378600D01*
X87630000Y-63500000D02*
X87630000Y-60807600D01*
X90017600Y-60782200D02*
X87655400Y-60782200D01*
X87655400Y-60782200D02*
X87630000Y-60807600D01*
X87630000Y-57378600D02*
X85598000Y-55346600D01*
D24*
X80245001Y-56787999D02*
X80645000Y-56388000D01*
X77730000Y-56855000D02*
X80178000Y-56855000D01*
X80178000Y-56855000D02*
X80245001Y-56787999D01*
X80228800Y-56855000D02*
X80228800Y-56804200D01*
X80228800Y-56804200D02*
X80772000Y-56261000D01*
X80772000Y-56261000D02*
X81661000Y-56261000D01*
X77730000Y-56855000D02*
X80228800Y-56855000D01*
X79486383Y-55555000D02*
X80685383Y-54356000D01*
X80685383Y-54356000D02*
X80772000Y-54356000D01*
X77730000Y-55555000D02*
X79486383Y-55555000D01*
X80772000Y-54356000D02*
X81661000Y-54356000D01*
D25*
X90017600Y-57353200D02*
X90017600Y-59004200D01*
D24*
X83429499Y-55362499D02*
X83439000Y-55372000D01*
X79658056Y-56205000D02*
X80500557Y-55362499D01*
X77730000Y-56205000D02*
X79658056Y-56205000D01*
X80500557Y-55362499D02*
X83429499Y-55362499D01*
D25*
X64262000Y-60325000D02*
X62357000Y-60325000D01*
X62357000Y-60325000D02*
X61849000Y-60833000D01*
X64389000Y-60198000D02*
X64262000Y-60325000D01*
X64389000Y-59055000D02*
X64389000Y-60198000D01*
X64389000Y-59055000D02*
X66040000Y-59055000D01*
D24*
X85090000Y-57023000D02*
X85090000Y-63500000D01*
X83439000Y-56261000D02*
X84328000Y-56261000D01*
X84328000Y-56261000D02*
X85090000Y-57023000D01*
X83439000Y-54356000D02*
X83439000Y-55352998D01*
X83439000Y-55352998D02*
X83429499Y-55362499D01*
X83439000Y-55372000D02*
X83439000Y-56261000D01*
D10*
X77730000Y-58155000D02*
X81650000Y-58155000D01*
X81650000Y-58155000D02*
X81661000Y-58166000D01*
X80717398Y-57505000D02*
X80891399Y-57330999D01*
X77730000Y-57505000D02*
X80717398Y-57505000D01*
X83365999Y-57330999D02*
X83439000Y-57404000D01*
X83439000Y-57404000D02*
X83439000Y-58166000D01*
X80891399Y-57330999D02*
X83365999Y-57330999D01*
D24*
X72130000Y-52955000D02*
X68449000Y-52955000D01*
X68449000Y-52955000D02*
X68199000Y-52705000D01*
D10*
X78776067Y-58805000D02*
X80772000Y-60800933D01*
X77730000Y-58805000D02*
X78776067Y-58805000D01*
X80772000Y-60800933D02*
X80772000Y-60826038D01*
X80772000Y-60826038D02*
X81041001Y-61095039D01*
X81041001Y-61095039D02*
X81041001Y-61991001D01*
X81041001Y-61991001D02*
X81178400Y-62128400D01*
D25*
X82550000Y-63500000D02*
X81178400Y-62128400D01*
X80010000Y-63500000D02*
X78892400Y-62382400D01*
D10*
X78892400Y-59563400D02*
X78892400Y-62382400D01*
X77730000Y-59455000D02*
X78784000Y-59455000D01*
X78784000Y-59455000D02*
X78892400Y-59563400D01*
D25*
X77470000Y-63500000D02*
X76581001Y-62611001D01*
X76581001Y-62611001D02*
X76301600Y-62331600D01*
D10*
X76301600Y-60479400D02*
X76301600Y-62331600D01*
X77730000Y-60105000D02*
X76676000Y-60105000D01*
X76676000Y-60105000D02*
X76301600Y-60479400D01*
D25*
X72390000Y-63500000D02*
X72390000Y-62242765D01*
X72390000Y-62242765D02*
X72390000Y-61950600D01*
D10*
X71002999Y-60563599D02*
X72390000Y-61950600D01*
X71076000Y-59455000D02*
X71002999Y-59528001D01*
X72130000Y-59455000D02*
X71076000Y-59455000D01*
X71002999Y-59528001D02*
X71002999Y-60563599D01*
X74930000Y-61851000D02*
X74930000Y-61976000D01*
D25*
X74930000Y-63500000D02*
X74930000Y-61976000D01*
D10*
X72130000Y-60105000D02*
X73184000Y-60105000D01*
X73184000Y-60105000D02*
X74930000Y-61851000D01*
X69850000Y-60031000D02*
X69850000Y-61899800D01*
D25*
X69850000Y-63500000D02*
X69850000Y-61899800D01*
D10*
X71076000Y-58805000D02*
X69850000Y-60031000D01*
X72130000Y-58805000D02*
X71076000Y-58805000D01*
D25*
X67310000Y-63500000D02*
X68757800Y-62052200D01*
D10*
X68757800Y-60481134D02*
X68757800Y-62052200D01*
X72130000Y-58155000D02*
X71083934Y-58155000D01*
X71083934Y-58155000D02*
X68757800Y-60481134D01*
X60825933Y-61722000D02*
X60263934Y-62283999D01*
X63088484Y-61357382D02*
X62723866Y-61722000D01*
X65255022Y-61375978D02*
X63911916Y-61375978D01*
X71076000Y-55555000D02*
X65255022Y-61375978D01*
X63893319Y-61357381D02*
X63088484Y-61357382D01*
X72130000Y-55555000D02*
X71076000Y-55555000D01*
X62723866Y-61722000D02*
X60825933Y-61722000D01*
X58797801Y-62283999D02*
X58797801Y-62289001D01*
X63911916Y-61375978D02*
X63893319Y-61357381D01*
X60263934Y-62283999D02*
X58797801Y-62283999D01*
D25*
X57150000Y-63500000D02*
X57581800Y-63500000D01*
X58792799Y-62289001D02*
X58797801Y-62289001D01*
X57581800Y-63500000D02*
X58792799Y-62289001D01*
D10*
X71076000Y-56205000D02*
X65451011Y-61829989D01*
X63723859Y-61829989D02*
X63705262Y-61811392D01*
X61436288Y-62176011D02*
X61264800Y-62347499D01*
X63276542Y-61811392D02*
X62911923Y-62176011D01*
X63705262Y-61811392D02*
X63276542Y-61811392D01*
X62911923Y-62176011D02*
X61436288Y-62176011D01*
X65451011Y-61829989D02*
X63723859Y-61829989D01*
X72130000Y-56205000D02*
X71076000Y-56205000D01*
X61264800Y-62347499D02*
X60906001Y-62283999D01*
D24*
X59690000Y-63500000D02*
X59820199Y-63500000D01*
X60972700Y-62347499D02*
X61264800Y-62347499D01*
X59820199Y-63500000D02*
X60972700Y-62347499D01*
D10*
X72130000Y-56855000D02*
X71076000Y-56855000D01*
X71076000Y-56855000D02*
X65647001Y-62283999D01*
X65647001Y-62283999D02*
X63535803Y-62283999D01*
X63535803Y-62283999D02*
X63490902Y-62328900D01*
X63490902Y-62328900D02*
X63446001Y-62283999D01*
D24*
X62319803Y-63500000D02*
X63446001Y-62373801D01*
X62230000Y-63500000D02*
X62319803Y-63500000D01*
X63446001Y-62373801D02*
X63490902Y-62328900D01*
D10*
X71076000Y-57505000D02*
X66700400Y-61880600D01*
X72130000Y-57505000D02*
X71076000Y-57505000D01*
X66700400Y-61880600D02*
X66700400Y-61976000D01*
D24*
X65176400Y-63500000D02*
X66700400Y-61976000D01*
X64770000Y-63500000D02*
X65176400Y-63500000D01*
D10*
X80842513Y-50310670D02*
X81064373Y-50088810D01*
X81064373Y-50088810D02*
X81978425Y-50088810D01*
X81978425Y-50088810D02*
X82550000Y-49517235D01*
X79404513Y-54905000D02*
X80842513Y-53467000D01*
X80842513Y-53467000D02*
X80842513Y-50310670D01*
X77730000Y-54905000D02*
X79404513Y-54905000D01*
D25*
X82550000Y-48260000D02*
X82550000Y-49517235D01*
D10*
X77730000Y-54255000D02*
X75994038Y-54255000D01*
X75994038Y-54255000D02*
X75342490Y-54906548D01*
X75342490Y-54906548D02*
X75140641Y-54906548D01*
X79222000Y-54255000D02*
X80391000Y-53086000D01*
X77730000Y-54255000D02*
X79222000Y-54255000D01*
X80391000Y-53086000D02*
X80391000Y-50037999D01*
X80391000Y-50037999D02*
X80898999Y-49530000D01*
D25*
X80010000Y-48260000D02*
X80898999Y-49148999D01*
X80898999Y-49148999D02*
X80898999Y-49530000D01*
D10*
X76181701Y-52955000D02*
X76126901Y-52900200D01*
X77730000Y-52955000D02*
X76181701Y-52955000D01*
X75818999Y-49148999D02*
X76559317Y-49148999D01*
X78891796Y-50546000D02*
X79451189Y-51105393D01*
X79451189Y-51105393D02*
X79451189Y-52287811D01*
X76559317Y-49148999D02*
X77956318Y-50546000D01*
X78784000Y-52955000D02*
X77730000Y-52955000D01*
X74930000Y-48260000D02*
X75818999Y-49148999D01*
X77956318Y-50546000D02*
X78891796Y-50546000D01*
X79451189Y-52287811D02*
X78784000Y-52955000D01*
X75624330Y-53605000D02*
X75289237Y-53940093D01*
X77730000Y-53605000D02*
X75624330Y-53605000D01*
X79117068Y-53605000D02*
X79883000Y-52839068D01*
X77730000Y-53605000D02*
X79117068Y-53605000D01*
X79883000Y-52839068D02*
X79883000Y-50673000D01*
X79883000Y-50673000D02*
X79121000Y-49911000D01*
X79121000Y-49911000D02*
X78486000Y-49276000D01*
D25*
X77470000Y-48260000D02*
X78486000Y-49276000D01*
D10*
X60833000Y-60325000D02*
X60198000Y-60960000D01*
X60198000Y-60960000D02*
X57150000Y-60960000D01*
X60833000Y-59182000D02*
X60833000Y-60325000D01*
X76574807Y-52305000D02*
X76465206Y-52195399D01*
X77730000Y-52305000D02*
X76574807Y-52305000D01*
X76465206Y-52195399D02*
X75368999Y-52195399D01*
X75368999Y-52195399D02*
X75329989Y-52234409D01*
D27*
X78780000Y-52305000D02*
X79021378Y-52063622D01*
X79021378Y-52063622D02*
X79021378Y-51286253D01*
X79021378Y-51286253D02*
X78740000Y-51004875D01*
X77730000Y-52305000D02*
X78780000Y-52305000D01*
D10*
X77773125Y-51004875D02*
X78740000Y-51004875D01*
X73715989Y-49585989D02*
X76354240Y-49585990D01*
X72390000Y-48260000D02*
X73715989Y-49585989D01*
X76354240Y-49585990D02*
X77773125Y-51004875D01*
X60166262Y-58420000D02*
X60490198Y-58096064D01*
X60490198Y-58096064D02*
X60890197Y-57696065D01*
X57150000Y-58420000D02*
X60166262Y-58420000D01*
D25*
X71374000Y-49185982D02*
X71374000Y-49276000D01*
X70448018Y-48260000D02*
X71374000Y-49185982D01*
X69850000Y-48260000D02*
X70448018Y-48260000D01*
D27*
X72136000Y-50038000D02*
X76167012Y-50038000D01*
X76801000Y-51655000D02*
X77730000Y-51655000D01*
X71374000Y-49276000D02*
X72136000Y-50038000D01*
X76167012Y-50038000D02*
X76708000Y-50578988D01*
X76708000Y-50578988D02*
X76708000Y-51562000D01*
X76708000Y-51562000D02*
X76801000Y-51655000D01*
D10*
X64389000Y-51790600D02*
X65278000Y-50901600D01*
X64389000Y-52705000D02*
X64389000Y-51790600D01*
X65278000Y-50901600D02*
X66750706Y-50901600D01*
X66750706Y-50901600D02*
X66757905Y-50908799D01*
X67310000Y-48260000D02*
X67310000Y-50356704D01*
X67310000Y-50356704D02*
X66757905Y-50908799D01*
X74625189Y-53463811D02*
X73184000Y-54905000D01*
X74625189Y-51612789D02*
X74625189Y-53463811D01*
X74149890Y-51137490D02*
X74625189Y-51612789D01*
X66986596Y-51137490D02*
X74149890Y-51137490D01*
X66757905Y-50908799D02*
X66986596Y-51137490D01*
X73184000Y-54905000D02*
X72130000Y-54905000D01*
D25*
X97089000Y-50579400D02*
X97089000Y-48453000D01*
X97089000Y-48453000D02*
X97091500Y-48450500D01*
X96139000Y-50579400D02*
X96139000Y-49471400D01*
X96139000Y-49471400D02*
X96139000Y-48450500D01*
D23*
X96139000Y-48450500D02*
X97091500Y-48450500D01*
X95577041Y-48450500D02*
X96139000Y-48450500D01*
X94370541Y-49657000D02*
X95577041Y-48450500D01*
X90525600Y-49657000D02*
X94370541Y-49657000D01*
D26*
X90487500Y-49618900D02*
X90525600Y-49657000D01*
X90487500Y-48298500D02*
X90487500Y-49618900D01*
D23*
X99695000Y-56451500D02*
X99695000Y-58166000D01*
X97917000Y-58166000D02*
X99695000Y-58166000D01*
X99695000Y-56451500D02*
X98472500Y-56451500D01*
X98472500Y-56451500D02*
X97901000Y-55880000D01*
X99339400Y-61696600D02*
X99339400Y-62611000D01*
X99339400Y-62611000D02*
X99339400Y-63149600D01*
X97917000Y-59944000D02*
X98882200Y-59944000D01*
X98882200Y-59944000D02*
X99695000Y-59944000D01*
X98882200Y-59944000D02*
X98882200Y-61239400D01*
X98882200Y-61239400D02*
X99176800Y-61534000D01*
D25*
X99339400Y-61696600D02*
X99176800Y-61534000D01*
X99176800Y-61534000D02*
X97947000Y-61534000D01*
X97947000Y-63434000D02*
X99055000Y-63434000D01*
X99055000Y-63434000D02*
X99339400Y-63149600D01*
X95347000Y-63434000D02*
X93649000Y-63434000D01*
X93649000Y-63434000D02*
X93646500Y-63436500D01*
D23*
X95189000Y-53179600D02*
X95189000Y-54541600D01*
X95189000Y-54541600D02*
X95032100Y-54698500D01*
X95032100Y-54698500D02*
X94477428Y-54698500D01*
X94477428Y-54698500D02*
X94631000Y-54852072D01*
X94631000Y-54852072D02*
X94631000Y-55880000D01*
X90487500Y-54698500D02*
X94477428Y-54698500D01*
D25*
X97089000Y-54061400D02*
X97701100Y-54673500D01*
X97701100Y-54673500D02*
X99695000Y-54673500D01*
X97089000Y-53179600D02*
X97089000Y-54061400D01*
X99695000Y-52895500D02*
X99695000Y-54673500D01*
X93503295Y-59425057D02*
X93082438Y-59004200D01*
X93082438Y-59004200D02*
X91795600Y-59004200D01*
X93503295Y-60798295D02*
X93503295Y-59425057D01*
X95347000Y-61534000D02*
X94239000Y-61534000D01*
X94239000Y-61534000D02*
X93503295Y-60798295D01*
X91795600Y-57353200D02*
X91795600Y-59004200D01*
D10*
G36*
X88599036Y-49298500D02*
X88628606Y-49447159D01*
X88712814Y-49573186D01*
X88838841Y-49657394D01*
X88987500Y-49686964D01*
X89612039Y-49686964D01*
X89666171Y-49959106D01*
X89824335Y-50195815D01*
X89858882Y-50247518D01*
X89896982Y-50285618D01*
X90185395Y-50478330D01*
X90525600Y-50546000D01*
X90865806Y-50478330D01*
X90954599Y-50419000D01*
X94370541Y-50419000D01*
X94525536Y-50388169D01*
X94525536Y-51179400D01*
X94555106Y-51328059D01*
X94639314Y-51454086D01*
X94765341Y-51538294D01*
X94914000Y-51567864D01*
X95464000Y-51567864D01*
X95612659Y-51538294D01*
X95664000Y-51503989D01*
X95715341Y-51538294D01*
X95864000Y-51567864D01*
X96414000Y-51567864D01*
X96562659Y-51538294D01*
X96614000Y-51503989D01*
X96665341Y-51538294D01*
X96814000Y-51567864D01*
X97364000Y-51567864D01*
X97512659Y-51538294D01*
X97638686Y-51454086D01*
X97722894Y-51328059D01*
X97752464Y-51179400D01*
X97752464Y-50483191D01*
X98552000Y-50483191D01*
X98552000Y-50831750D01*
X98710750Y-50990500D01*
X99568000Y-50990500D01*
X99568000Y-50133250D01*
X99822000Y-50133250D01*
X99822000Y-50990500D01*
X100679250Y-50990500D01*
X100838000Y-50831750D01*
X100838000Y-50483191D01*
X100741327Y-50249802D01*
X100562699Y-50071173D01*
X100329310Y-49974500D01*
X99980750Y-49974500D01*
X99822000Y-50133250D01*
X99568000Y-50133250D01*
X99409250Y-49974500D01*
X99060690Y-49974500D01*
X98827301Y-50071173D01*
X98648673Y-50249802D01*
X98552000Y-50483191D01*
X97752464Y-50483191D01*
X97752464Y-49979400D01*
X97724000Y-49836301D01*
X97724000Y-49322200D01*
X97748159Y-49317394D01*
X97806651Y-49278311D01*
X97823173Y-49318199D01*
X98001802Y-49496827D01*
X98235191Y-49593500D01*
X98583750Y-49593500D01*
X98742500Y-49434750D01*
X98742500Y-48577500D01*
X98996500Y-48577500D01*
X98996500Y-49434750D01*
X99155250Y-49593500D01*
X99503809Y-49593500D01*
X99737198Y-49496827D01*
X99915827Y-49318199D01*
X100012500Y-49084810D01*
X100012500Y-48736250D01*
X99853750Y-48577500D01*
X98996500Y-48577500D01*
X98742500Y-48577500D01*
X98722500Y-48577500D01*
X98722500Y-48323500D01*
X98742500Y-48323500D01*
X98742500Y-48303500D01*
X98996500Y-48303500D01*
X98996500Y-48323500D01*
X99853750Y-48323500D01*
X100012500Y-48164750D01*
X100012500Y-47816190D01*
X99915827Y-47582801D01*
X99831026Y-47498000D01*
X101092000Y-47498000D01*
X101092000Y-64262000D01*
X94554051Y-64262000D01*
X94605394Y-64185159D01*
X94627563Y-64073707D01*
X94747000Y-64097464D01*
X95947000Y-64097464D01*
X96095659Y-64067894D01*
X96221686Y-63983686D01*
X96305894Y-63857659D01*
X96335464Y-63709000D01*
X96335464Y-63159000D01*
X96305894Y-63010341D01*
X96221686Y-62884314D01*
X96095659Y-62800106D01*
X95947000Y-62770536D01*
X94747000Y-62770536D01*
X94626606Y-62794484D01*
X94605394Y-62687841D01*
X94521186Y-62561814D01*
X94395159Y-62477606D01*
X94246500Y-62448036D01*
X93046500Y-62448036D01*
X92897841Y-62477606D01*
X92771814Y-62561814D01*
X92687606Y-62687841D01*
X92658036Y-62836500D01*
X92658036Y-64036500D01*
X92687606Y-64185159D01*
X92738949Y-64262000D01*
X92532200Y-64262000D01*
X92532200Y-61595679D01*
X92578286Y-61564886D01*
X92662494Y-61438859D01*
X92692064Y-61290200D01*
X92692064Y-60274200D01*
X92662494Y-60125541D01*
X92578286Y-59999514D01*
X92532200Y-59968721D01*
X92532200Y-59817679D01*
X92578286Y-59786886D01*
X92662494Y-59660859D01*
X92666802Y-59639200D01*
X92819412Y-59639200D01*
X92868295Y-59688083D01*
X92868295Y-60798295D01*
X92916631Y-61041299D01*
X93054282Y-61247308D01*
X93789987Y-61983013D01*
X93995996Y-62120664D01*
X94239000Y-62169000D01*
X94603901Y-62169000D01*
X94747000Y-62197464D01*
X95947000Y-62197464D01*
X96095659Y-62167894D01*
X96221686Y-62083686D01*
X96305894Y-61957659D01*
X96335464Y-61809000D01*
X96335464Y-61259000D01*
X96305894Y-61110341D01*
X96266002Y-61050638D01*
X96266002Y-60928252D01*
X96424750Y-61087000D01*
X96773309Y-61087000D01*
X97006698Y-60990327D01*
X97185327Y-60811699D01*
X97201849Y-60771811D01*
X97260341Y-60810894D01*
X97409000Y-60840464D01*
X98120200Y-60840464D01*
X98120200Y-60870536D01*
X97347000Y-60870536D01*
X97198341Y-60900106D01*
X97072314Y-60984314D01*
X96988106Y-61110341D01*
X96958536Y-61259000D01*
X96958536Y-61699439D01*
X96808673Y-61849301D01*
X96712000Y-62082690D01*
X96712000Y-62198250D01*
X96870750Y-62357000D01*
X97820000Y-62357000D01*
X97820000Y-62337000D01*
X98074000Y-62337000D01*
X98074000Y-62357000D01*
X98094000Y-62357000D01*
X98094000Y-62611000D01*
X98074000Y-62611000D01*
X98074000Y-62631000D01*
X97820000Y-62631000D01*
X97820000Y-62611000D01*
X96870750Y-62611000D01*
X96712000Y-62769750D01*
X96712000Y-62885310D01*
X96808673Y-63118699D01*
X96958536Y-63268561D01*
X96958536Y-63709000D01*
X96988106Y-63857659D01*
X97072314Y-63983686D01*
X97198341Y-64067894D01*
X97347000Y-64097464D01*
X98547000Y-64097464D01*
X98690099Y-64069000D01*
X99055000Y-64069000D01*
X99298004Y-64020664D01*
X99504013Y-63883013D01*
X99509202Y-63877824D01*
X99631005Y-63853596D01*
X99878215Y-63688415D01*
X100043396Y-63441205D01*
X100101400Y-63149600D01*
X100101400Y-61696600D01*
X100043396Y-61404995D01*
X99878215Y-61157785D01*
X99780744Y-61092657D01*
X99715615Y-60995184D01*
X99644200Y-60923769D01*
X99644200Y-60840464D01*
X100203000Y-60840464D01*
X100351659Y-60810894D01*
X100477686Y-60726686D01*
X100561894Y-60600659D01*
X100591464Y-60452000D01*
X100591464Y-59436000D01*
X100561894Y-59287341D01*
X100477686Y-59161314D01*
X100351659Y-59077106D01*
X100240524Y-59055000D01*
X100351659Y-59032894D01*
X100477686Y-58948686D01*
X100561894Y-58822659D01*
X100591464Y-58674000D01*
X100591464Y-57658000D01*
X100561894Y-57509341D01*
X100477686Y-57383314D01*
X100457000Y-57369492D01*
X100457000Y-57248008D01*
X100477686Y-57234186D01*
X100561894Y-57108159D01*
X100591464Y-56959500D01*
X100591464Y-55943500D01*
X100561894Y-55794841D01*
X100477686Y-55668814D01*
X100351659Y-55584606D01*
X100240524Y-55562500D01*
X100351659Y-55540394D01*
X100477686Y-55456186D01*
X100561894Y-55330159D01*
X100591464Y-55181500D01*
X100591464Y-54165500D01*
X100561894Y-54016841D01*
X100477686Y-53890814D01*
X100351659Y-53806606D01*
X100330000Y-53802298D01*
X100330000Y-53766702D01*
X100351659Y-53762394D01*
X100477686Y-53678186D01*
X100561894Y-53552159D01*
X100591464Y-53403500D01*
X100591464Y-52387500D01*
X100561894Y-52238841D01*
X100522811Y-52180349D01*
X100562699Y-52163827D01*
X100741327Y-51985198D01*
X100838000Y-51751809D01*
X100838000Y-51403250D01*
X100679250Y-51244500D01*
X99822000Y-51244500D01*
X99822000Y-51264500D01*
X99568000Y-51264500D01*
X99568000Y-51244500D01*
X98710750Y-51244500D01*
X98552000Y-51403250D01*
X98552000Y-51751809D01*
X98648673Y-51985198D01*
X98827301Y-52163827D01*
X98867189Y-52180349D01*
X98828106Y-52238841D01*
X98798536Y-52387500D01*
X98798536Y-53403500D01*
X98828106Y-53552159D01*
X98912314Y-53678186D01*
X99038341Y-53762394D01*
X99060000Y-53766702D01*
X99060000Y-53802298D01*
X99038341Y-53806606D01*
X98912314Y-53890814D01*
X98828106Y-54016841D01*
X98823798Y-54038500D01*
X97964126Y-54038500D01*
X97744627Y-53819001D01*
X97752464Y-53779600D01*
X97752464Y-52579600D01*
X97722894Y-52430941D01*
X97638686Y-52304914D01*
X97512659Y-52220706D01*
X97364000Y-52191136D01*
X96923562Y-52191136D01*
X96773698Y-52041273D01*
X96540309Y-51944600D01*
X96424750Y-51944600D01*
X96266000Y-52103350D01*
X96266000Y-53052600D01*
X96286000Y-53052600D01*
X96286000Y-53306600D01*
X96266000Y-53306600D01*
X96266000Y-54255850D01*
X96424750Y-54414600D01*
X96540309Y-54414600D01*
X96568237Y-54403032D01*
X96639987Y-54510413D01*
X97091400Y-54961826D01*
X97026314Y-55005314D01*
X96942106Y-55131341D01*
X96912536Y-55280000D01*
X96912536Y-56480000D01*
X96942106Y-56628659D01*
X97026314Y-56754686D01*
X97152341Y-56838894D01*
X97301000Y-56868464D01*
X97811834Y-56868464D01*
X97933685Y-56990315D01*
X98180895Y-57155496D01*
X98472500Y-57213500D01*
X98898492Y-57213500D01*
X98912314Y-57234186D01*
X98933000Y-57248008D01*
X98933000Y-57369492D01*
X98912314Y-57383314D01*
X98898492Y-57404000D01*
X98713508Y-57404000D01*
X98699686Y-57383314D01*
X98573659Y-57299106D01*
X98425000Y-57269536D01*
X97409000Y-57269536D01*
X97260341Y-57299106D01*
X97201849Y-57338189D01*
X97185327Y-57298301D01*
X97006698Y-57119673D01*
X96773309Y-57023000D01*
X96424750Y-57023000D01*
X96266000Y-57181750D01*
X96266000Y-58039000D01*
X96286000Y-58039000D01*
X96286000Y-58293000D01*
X96266000Y-58293000D01*
X96266000Y-59817000D01*
X96286000Y-59817000D01*
X96286000Y-60071000D01*
X96266000Y-60071000D01*
X96266000Y-60091000D01*
X96012000Y-60091000D01*
X96012000Y-60071000D01*
X95154750Y-60071000D01*
X94996000Y-60229750D01*
X94996000Y-60578310D01*
X95092673Y-60811699D01*
X95151510Y-60870536D01*
X94747000Y-60870536D01*
X94603901Y-60899000D01*
X94502026Y-60899000D01*
X94138295Y-60535269D01*
X94138295Y-59425062D01*
X94138296Y-59425057D01*
X94089959Y-59182053D01*
X93952308Y-58976044D01*
X93531451Y-58555187D01*
X93376647Y-58451750D01*
X94996000Y-58451750D01*
X94996000Y-58800310D01*
X95092673Y-59033699D01*
X95113974Y-59055000D01*
X95092673Y-59076301D01*
X94996000Y-59309690D01*
X94996000Y-59658250D01*
X95154750Y-59817000D01*
X96012000Y-59817000D01*
X96012000Y-58293000D01*
X95154750Y-58293000D01*
X94996000Y-58451750D01*
X93376647Y-58451750D01*
X93325442Y-58417536D01*
X93082438Y-58369200D01*
X92666802Y-58369200D01*
X92662494Y-58347541D01*
X92578286Y-58221514D01*
X92532200Y-58190720D01*
X92532200Y-58166680D01*
X92578286Y-58135886D01*
X92662494Y-58009859D01*
X92692064Y-57861200D01*
X92692064Y-57531690D01*
X94996000Y-57531690D01*
X94996000Y-57880250D01*
X95154750Y-58039000D01*
X96012000Y-58039000D01*
X96012000Y-57181750D01*
X95853250Y-57023000D01*
X95504691Y-57023000D01*
X95271302Y-57119673D01*
X95092673Y-57298301D01*
X94996000Y-57531690D01*
X92692064Y-57531690D01*
X92692064Y-56845200D01*
X92662494Y-56696541D01*
X92578286Y-56570514D01*
X92452259Y-56486306D01*
X92303600Y-56456736D01*
X91562936Y-56456736D01*
X91284185Y-56086964D01*
X91987500Y-56086964D01*
X92136159Y-56057394D01*
X92262186Y-55973186D01*
X92346394Y-55847159D01*
X92375964Y-55698500D01*
X92375964Y-55460500D01*
X93642536Y-55460500D01*
X93642536Y-56480000D01*
X93672106Y-56628659D01*
X93756314Y-56754686D01*
X93882341Y-56838894D01*
X94031000Y-56868464D01*
X95231000Y-56868464D01*
X95379659Y-56838894D01*
X95505686Y-56754686D01*
X95589894Y-56628659D01*
X95619464Y-56480000D01*
X95619464Y-55280000D01*
X95604327Y-55203903D01*
X95727815Y-55080415D01*
X95892996Y-54833205D01*
X95907570Y-54759936D01*
X95951000Y-54541600D01*
X95951000Y-54316850D01*
X96012000Y-54255850D01*
X96012000Y-53306600D01*
X95992000Y-53306600D01*
X95992000Y-53052600D01*
X96012000Y-53052600D01*
X96012000Y-52103350D01*
X95853250Y-51944600D01*
X95737691Y-51944600D01*
X95504302Y-52041273D01*
X95354438Y-52191136D01*
X94914000Y-52191136D01*
X94765341Y-52220706D01*
X94639314Y-52304914D01*
X94555106Y-52430941D01*
X94525536Y-52579600D01*
X94525536Y-52827335D01*
X94485004Y-52887995D01*
X94427000Y-53179600D01*
X94427000Y-53936500D01*
X92375964Y-53936500D01*
X92375964Y-53698500D01*
X92346394Y-53549841D01*
X92262186Y-53423814D01*
X92136159Y-53339606D01*
X91987500Y-53310036D01*
X88987500Y-53310036D01*
X88838841Y-53339606D01*
X88712814Y-53423814D01*
X88628606Y-53549841D01*
X88599036Y-53698500D01*
X88599036Y-55698500D01*
X88628606Y-55847159D01*
X88633578Y-55854600D01*
X87004026Y-55854600D01*
X86741000Y-55591574D01*
X86741000Y-47498000D01*
X88599036Y-47498000D01*
X88599036Y-49298500D01*
X88599036Y-49298500D01*
G37*
X88599036Y-49298500D02*
X88628606Y-49447159D01*
X88712814Y-49573186D01*
X88838841Y-49657394D01*
X88987500Y-49686964D01*
X89612039Y-49686964D01*
X89666171Y-49959106D01*
X89824335Y-50195815D01*
X89858882Y-50247518D01*
X89896982Y-50285618D01*
X90185395Y-50478330D01*
X90525600Y-50546000D01*
X90865806Y-50478330D01*
X90954599Y-50419000D01*
X94370541Y-50419000D01*
X94525536Y-50388169D01*
X94525536Y-51179400D01*
X94555106Y-51328059D01*
X94639314Y-51454086D01*
X94765341Y-51538294D01*
X94914000Y-51567864D01*
X95464000Y-51567864D01*
X95612659Y-51538294D01*
X95664000Y-51503989D01*
X95715341Y-51538294D01*
X95864000Y-51567864D01*
X96414000Y-51567864D01*
X96562659Y-51538294D01*
X96614000Y-51503989D01*
X96665341Y-51538294D01*
X96814000Y-51567864D01*
X97364000Y-51567864D01*
X97512659Y-51538294D01*
X97638686Y-51454086D01*
X97722894Y-51328059D01*
X97752464Y-51179400D01*
X97752464Y-50483191D01*
X98552000Y-50483191D01*
X98552000Y-50831750D01*
X98710750Y-50990500D01*
X99568000Y-50990500D01*
X99568000Y-50133250D01*
X99822000Y-50133250D01*
X99822000Y-50990500D01*
X100679250Y-50990500D01*
X100838000Y-50831750D01*
X100838000Y-50483191D01*
X100741327Y-50249802D01*
X100562699Y-50071173D01*
X100329310Y-49974500D01*
X99980750Y-49974500D01*
X99822000Y-50133250D01*
X99568000Y-50133250D01*
X99409250Y-49974500D01*
X99060690Y-49974500D01*
X98827301Y-50071173D01*
X98648673Y-50249802D01*
X98552000Y-50483191D01*
X97752464Y-50483191D01*
X97752464Y-49979400D01*
X97724000Y-49836301D01*
X97724000Y-49322200D01*
X97748159Y-49317394D01*
X97806651Y-49278311D01*
X97823173Y-49318199D01*
X98001802Y-49496827D01*
X98235191Y-49593500D01*
X98583750Y-49593500D01*
X98742500Y-49434750D01*
X98742500Y-48577500D01*
X98996500Y-48577500D01*
X98996500Y-49434750D01*
X99155250Y-49593500D01*
X99503809Y-49593500D01*
X99737198Y-49496827D01*
X99915827Y-49318199D01*
X100012500Y-49084810D01*
X100012500Y-48736250D01*
X99853750Y-48577500D01*
X98996500Y-48577500D01*
X98742500Y-48577500D01*
X98722500Y-48577500D01*
X98722500Y-48323500D01*
X98742500Y-48323500D01*
X98742500Y-48303500D01*
X98996500Y-48303500D01*
X98996500Y-48323500D01*
X99853750Y-48323500D01*
X100012500Y-48164750D01*
X100012500Y-47816190D01*
X99915827Y-47582801D01*
X99831026Y-47498000D01*
X101092000Y-47498000D01*
X101092000Y-64262000D01*
X94554051Y-64262000D01*
X94605394Y-64185159D01*
X94627563Y-64073707D01*
X94747000Y-64097464D01*
X95947000Y-64097464D01*
X96095659Y-64067894D01*
X96221686Y-63983686D01*
X96305894Y-63857659D01*
X96335464Y-63709000D01*
X96335464Y-63159000D01*
X96305894Y-63010341D01*
X96221686Y-62884314D01*
X96095659Y-62800106D01*
X95947000Y-62770536D01*
X94747000Y-62770536D01*
X94626606Y-62794484D01*
X94605394Y-62687841D01*
X94521186Y-62561814D01*
X94395159Y-62477606D01*
X94246500Y-62448036D01*
X93046500Y-62448036D01*
X92897841Y-62477606D01*
X92771814Y-62561814D01*
X92687606Y-62687841D01*
X92658036Y-62836500D01*
X92658036Y-64036500D01*
X92687606Y-64185159D01*
X92738949Y-64262000D01*
X92532200Y-64262000D01*
X92532200Y-61595679D01*
X92578286Y-61564886D01*
X92662494Y-61438859D01*
X92692064Y-61290200D01*
X92692064Y-60274200D01*
X92662494Y-60125541D01*
X92578286Y-59999514D01*
X92532200Y-59968721D01*
X92532200Y-59817679D01*
X92578286Y-59786886D01*
X92662494Y-59660859D01*
X92666802Y-59639200D01*
X92819412Y-59639200D01*
X92868295Y-59688083D01*
X92868295Y-60798295D01*
X92916631Y-61041299D01*
X93054282Y-61247308D01*
X93789987Y-61983013D01*
X93995996Y-62120664D01*
X94239000Y-62169000D01*
X94603901Y-62169000D01*
X94747000Y-62197464D01*
X95947000Y-62197464D01*
X96095659Y-62167894D01*
X96221686Y-62083686D01*
X96305894Y-61957659D01*
X96335464Y-61809000D01*
X96335464Y-61259000D01*
X96305894Y-61110341D01*
X96266002Y-61050638D01*
X96266002Y-60928252D01*
X96424750Y-61087000D01*
X96773309Y-61087000D01*
X97006698Y-60990327D01*
X97185327Y-60811699D01*
X97201849Y-60771811D01*
X97260341Y-60810894D01*
X97409000Y-60840464D01*
X98120200Y-60840464D01*
X98120200Y-60870536D01*
X97347000Y-60870536D01*
X97198341Y-60900106D01*
X97072314Y-60984314D01*
X96988106Y-61110341D01*
X96958536Y-61259000D01*
X96958536Y-61699439D01*
X96808673Y-61849301D01*
X96712000Y-62082690D01*
X96712000Y-62198250D01*
X96870750Y-62357000D01*
X97820000Y-62357000D01*
X97820000Y-62337000D01*
X98074000Y-62337000D01*
X98074000Y-62357000D01*
X98094000Y-62357000D01*
X98094000Y-62611000D01*
X98074000Y-62611000D01*
X98074000Y-62631000D01*
X97820000Y-62631000D01*
X97820000Y-62611000D01*
X96870750Y-62611000D01*
X96712000Y-62769750D01*
X96712000Y-62885310D01*
X96808673Y-63118699D01*
X96958536Y-63268561D01*
X96958536Y-63709000D01*
X96988106Y-63857659D01*
X97072314Y-63983686D01*
X97198341Y-64067894D01*
X97347000Y-64097464D01*
X98547000Y-64097464D01*
X98690099Y-64069000D01*
X99055000Y-64069000D01*
X99298004Y-64020664D01*
X99504013Y-63883013D01*
X99509202Y-63877824D01*
X99631005Y-63853596D01*
X99878215Y-63688415D01*
X100043396Y-63441205D01*
X100101400Y-63149600D01*
X100101400Y-61696600D01*
X100043396Y-61404995D01*
X99878215Y-61157785D01*
X99780744Y-61092657D01*
X99715615Y-60995184D01*
X99644200Y-60923769D01*
X99644200Y-60840464D01*
X100203000Y-60840464D01*
X100351659Y-60810894D01*
X100477686Y-60726686D01*
X100561894Y-60600659D01*
X100591464Y-60452000D01*
X100591464Y-59436000D01*
X100561894Y-59287341D01*
X100477686Y-59161314D01*
X100351659Y-59077106D01*
X100240524Y-59055000D01*
X100351659Y-59032894D01*
X100477686Y-58948686D01*
X100561894Y-58822659D01*
X100591464Y-58674000D01*
X100591464Y-57658000D01*
X100561894Y-57509341D01*
X100477686Y-57383314D01*
X100457000Y-57369492D01*
X100457000Y-57248008D01*
X100477686Y-57234186D01*
X100561894Y-57108159D01*
X100591464Y-56959500D01*
X100591464Y-55943500D01*
X100561894Y-55794841D01*
X100477686Y-55668814D01*
X100351659Y-55584606D01*
X100240524Y-55562500D01*
X100351659Y-55540394D01*
X100477686Y-55456186D01*
X100561894Y-55330159D01*
X100591464Y-55181500D01*
X100591464Y-54165500D01*
X100561894Y-54016841D01*
X100477686Y-53890814D01*
X100351659Y-53806606D01*
X100330000Y-53802298D01*
X100330000Y-53766702D01*
X100351659Y-53762394D01*
X100477686Y-53678186D01*
X100561894Y-53552159D01*
X100591464Y-53403500D01*
X100591464Y-52387500D01*
X100561894Y-52238841D01*
X100522811Y-52180349D01*
X100562699Y-52163827D01*
X100741327Y-51985198D01*
X100838000Y-51751809D01*
X100838000Y-51403250D01*
X100679250Y-51244500D01*
X99822000Y-51244500D01*
X99822000Y-51264500D01*
X99568000Y-51264500D01*
X99568000Y-51244500D01*
X98710750Y-51244500D01*
X98552000Y-51403250D01*
X98552000Y-51751809D01*
X98648673Y-51985198D01*
X98827301Y-52163827D01*
X98867189Y-52180349D01*
X98828106Y-52238841D01*
X98798536Y-52387500D01*
X98798536Y-53403500D01*
X98828106Y-53552159D01*
X98912314Y-53678186D01*
X99038341Y-53762394D01*
X99060000Y-53766702D01*
X99060000Y-53802298D01*
X99038341Y-53806606D01*
X98912314Y-53890814D01*
X98828106Y-54016841D01*
X98823798Y-54038500D01*
X97964126Y-54038500D01*
X97744627Y-53819001D01*
X97752464Y-53779600D01*
X97752464Y-52579600D01*
X97722894Y-52430941D01*
X97638686Y-52304914D01*
X97512659Y-52220706D01*
X97364000Y-52191136D01*
X96923562Y-52191136D01*
X96773698Y-52041273D01*
X96540309Y-51944600D01*
X96424750Y-51944600D01*
X96266000Y-52103350D01*
X96266000Y-53052600D01*
X96286000Y-53052600D01*
X96286000Y-53306600D01*
X96266000Y-53306600D01*
X96266000Y-54255850D01*
X96424750Y-54414600D01*
X96540309Y-54414600D01*
X96568237Y-54403032D01*
X96639987Y-54510413D01*
X97091400Y-54961826D01*
X97026314Y-55005314D01*
X96942106Y-55131341D01*
X96912536Y-55280000D01*
X96912536Y-56480000D01*
X96942106Y-56628659D01*
X97026314Y-56754686D01*
X97152341Y-56838894D01*
X97301000Y-56868464D01*
X97811834Y-56868464D01*
X97933685Y-56990315D01*
X98180895Y-57155496D01*
X98472500Y-57213500D01*
X98898492Y-57213500D01*
X98912314Y-57234186D01*
X98933000Y-57248008D01*
X98933000Y-57369492D01*
X98912314Y-57383314D01*
X98898492Y-57404000D01*
X98713508Y-57404000D01*
X98699686Y-57383314D01*
X98573659Y-57299106D01*
X98425000Y-57269536D01*
X97409000Y-57269536D01*
X97260341Y-57299106D01*
X97201849Y-57338189D01*
X97185327Y-57298301D01*
X97006698Y-57119673D01*
X96773309Y-57023000D01*
X96424750Y-57023000D01*
X96266000Y-57181750D01*
X96266000Y-58039000D01*
X96286000Y-58039000D01*
X96286000Y-58293000D01*
X96266000Y-58293000D01*
X96266000Y-59817000D01*
X96286000Y-59817000D01*
X96286000Y-60071000D01*
X96266000Y-60071000D01*
X96266000Y-60091000D01*
X96012000Y-60091000D01*
X96012000Y-60071000D01*
X95154750Y-60071000D01*
X94996000Y-60229750D01*
X94996000Y-60578310D01*
X95092673Y-60811699D01*
X95151510Y-60870536D01*
X94747000Y-60870536D01*
X94603901Y-60899000D01*
X94502026Y-60899000D01*
X94138295Y-60535269D01*
X94138295Y-59425062D01*
X94138296Y-59425057D01*
X94089959Y-59182053D01*
X93952308Y-58976044D01*
X93531451Y-58555187D01*
X93376647Y-58451750D01*
X94996000Y-58451750D01*
X94996000Y-58800310D01*
X95092673Y-59033699D01*
X95113974Y-59055000D01*
X95092673Y-59076301D01*
X94996000Y-59309690D01*
X94996000Y-59658250D01*
X95154750Y-59817000D01*
X96012000Y-59817000D01*
X96012000Y-58293000D01*
X95154750Y-58293000D01*
X94996000Y-58451750D01*
X93376647Y-58451750D01*
X93325442Y-58417536D01*
X93082438Y-58369200D01*
X92666802Y-58369200D01*
X92662494Y-58347541D01*
X92578286Y-58221514D01*
X92532200Y-58190720D01*
X92532200Y-58166680D01*
X92578286Y-58135886D01*
X92662494Y-58009859D01*
X92692064Y-57861200D01*
X92692064Y-57531690D01*
X94996000Y-57531690D01*
X94996000Y-57880250D01*
X95154750Y-58039000D01*
X96012000Y-58039000D01*
X96012000Y-57181750D01*
X95853250Y-57023000D01*
X95504691Y-57023000D01*
X95271302Y-57119673D01*
X95092673Y-57298301D01*
X94996000Y-57531690D01*
X92692064Y-57531690D01*
X92692064Y-56845200D01*
X92662494Y-56696541D01*
X92578286Y-56570514D01*
X92452259Y-56486306D01*
X92303600Y-56456736D01*
X91562936Y-56456736D01*
X91284185Y-56086964D01*
X91987500Y-56086964D01*
X92136159Y-56057394D01*
X92262186Y-55973186D01*
X92346394Y-55847159D01*
X92375964Y-55698500D01*
X92375964Y-55460500D01*
X93642536Y-55460500D01*
X93642536Y-56480000D01*
X93672106Y-56628659D01*
X93756314Y-56754686D01*
X93882341Y-56838894D01*
X94031000Y-56868464D01*
X95231000Y-56868464D01*
X95379659Y-56838894D01*
X95505686Y-56754686D01*
X95589894Y-56628659D01*
X95619464Y-56480000D01*
X95619464Y-55280000D01*
X95604327Y-55203903D01*
X95727815Y-55080415D01*
X95892996Y-54833205D01*
X95907570Y-54759936D01*
X95951000Y-54541600D01*
X95951000Y-54316850D01*
X96012000Y-54255850D01*
X96012000Y-53306600D01*
X95992000Y-53306600D01*
X95992000Y-53052600D01*
X96012000Y-53052600D01*
X96012000Y-52103350D01*
X95853250Y-51944600D01*
X95737691Y-51944600D01*
X95504302Y-52041273D01*
X95354438Y-52191136D01*
X94914000Y-52191136D01*
X94765341Y-52220706D01*
X94639314Y-52304914D01*
X94555106Y-52430941D01*
X94525536Y-52579600D01*
X94525536Y-52827335D01*
X94485004Y-52887995D01*
X94427000Y-53179600D01*
X94427000Y-53936500D01*
X92375964Y-53936500D01*
X92375964Y-53698500D01*
X92346394Y-53549841D01*
X92262186Y-53423814D01*
X92136159Y-53339606D01*
X91987500Y-53310036D01*
X88987500Y-53310036D01*
X88838841Y-53339606D01*
X88712814Y-53423814D01*
X88628606Y-53549841D01*
X88599036Y-53698500D01*
X88599036Y-55698500D01*
X88628606Y-55847159D01*
X88633578Y-55854600D01*
X87004026Y-55854600D01*
X86741000Y-55591574D01*
X86741000Y-47498000D01*
X88599036Y-47498000D01*
X88599036Y-49298500D01*
G36*
X61976000Y-51825026D02*
X61976000Y-51833798D01*
X61954341Y-51838106D01*
X61828314Y-51922314D01*
X61744106Y-52048341D01*
X61714536Y-52197000D01*
X61714536Y-53213000D01*
X61744106Y-53361659D01*
X61828314Y-53487686D01*
X61954341Y-53571894D01*
X61976000Y-53576202D01*
X61976000Y-53738798D01*
X61954341Y-53743106D01*
X61828314Y-53827314D01*
X61744106Y-53953341D01*
X61714536Y-54102000D01*
X61714536Y-55118000D01*
X61744106Y-55266659D01*
X61828314Y-55392686D01*
X61954341Y-55476894D01*
X62103000Y-55506464D01*
X63119000Y-55506464D01*
X63267659Y-55476894D01*
X63393686Y-55392686D01*
X63477894Y-55266659D01*
X63500000Y-55155524D01*
X63500000Y-55193785D01*
X63558004Y-55333819D01*
X63665180Y-55440996D01*
X63805214Y-55499000D01*
X64166750Y-55499000D01*
X64262000Y-55403750D01*
X64262000Y-54737000D01*
X64516000Y-54737000D01*
X64516000Y-55403750D01*
X64611250Y-55499000D01*
X64972786Y-55499000D01*
X65112820Y-55440996D01*
X65219996Y-55333819D01*
X65278000Y-55193785D01*
X65278000Y-54832250D01*
X65532000Y-54832250D01*
X65532000Y-55193785D01*
X65590004Y-55333819D01*
X65697180Y-55440996D01*
X65837214Y-55499000D01*
X66198750Y-55499000D01*
X66294000Y-55403750D01*
X66294000Y-54737000D01*
X65627250Y-54737000D01*
X65532000Y-54832250D01*
X65278000Y-54832250D01*
X65182750Y-54737000D01*
X64516000Y-54737000D01*
X64262000Y-54737000D01*
X64242000Y-54737000D01*
X64242000Y-54483000D01*
X64262000Y-54483000D01*
X64262000Y-54463000D01*
X64516000Y-54463000D01*
X64516000Y-54483000D01*
X65182750Y-54483000D01*
X65278000Y-54387750D01*
X65278000Y-54165500D01*
X65532000Y-54165500D01*
X65532000Y-54387750D01*
X65627250Y-54483000D01*
X66294000Y-54483000D01*
X66294000Y-54463000D01*
X66548000Y-54463000D01*
X66548000Y-54483000D01*
X66568000Y-54483000D01*
X66568000Y-54737000D01*
X66548000Y-54737000D01*
X66548000Y-55403750D01*
X66643250Y-55499000D01*
X67004786Y-55499000D01*
X67144820Y-55440996D01*
X67251996Y-55333819D01*
X67310000Y-55193785D01*
X67310000Y-55155524D01*
X67332106Y-55266659D01*
X67416314Y-55392686D01*
X67542341Y-55476894D01*
X67691000Y-55506464D01*
X68281539Y-55506464D01*
X64665632Y-58102500D01*
X62801500Y-58102500D01*
X62752899Y-58112167D01*
X62711697Y-58139697D01*
X62484000Y-58367394D01*
X62484000Y-58261250D01*
X62388750Y-58166000D01*
X62027214Y-58166000D01*
X61887180Y-58224004D01*
X61780004Y-58331181D01*
X61722000Y-58471215D01*
X61722000Y-58832750D01*
X61817250Y-58928000D01*
X61923394Y-58928000D01*
X61613952Y-59237442D01*
X61614136Y-59027331D01*
X61495486Y-58740177D01*
X61275979Y-58520286D01*
X61108699Y-58450826D01*
X61332020Y-58358551D01*
X61551911Y-58139044D01*
X61671061Y-57852097D01*
X61671333Y-57541396D01*
X61552683Y-57254242D01*
X61333176Y-57034351D01*
X61046229Y-56915201D01*
X60735528Y-56914929D01*
X60448374Y-57033579D01*
X60228483Y-57253086D01*
X60109333Y-57540033D01*
X60109142Y-57758700D01*
X60078464Y-57789378D01*
X60078464Y-57658000D01*
X60048894Y-57509341D01*
X59964686Y-57383314D01*
X59838659Y-57299106D01*
X59690000Y-57269536D01*
X55118000Y-57269536D01*
X55118000Y-57030464D01*
X59690000Y-57030464D01*
X59838659Y-57000894D01*
X59964686Y-56916686D01*
X60048894Y-56790659D01*
X60078464Y-56642000D01*
X60078464Y-55118000D01*
X60048894Y-54969341D01*
X59964686Y-54843314D01*
X59838659Y-54759106D01*
X59690000Y-54729536D01*
X55118000Y-54729536D01*
X55118000Y-54490464D01*
X59690000Y-54490464D01*
X59838659Y-54460894D01*
X59964686Y-54376686D01*
X60048894Y-54250659D01*
X60078464Y-54102000D01*
X60078464Y-52578000D01*
X60048894Y-52429341D01*
X59964686Y-52303314D01*
X59838659Y-52219106D01*
X59690000Y-52189536D01*
X55118000Y-52189536D01*
X55118000Y-51950464D01*
X59690000Y-51950464D01*
X59838659Y-51920894D01*
X59964686Y-51836686D01*
X60048894Y-51710659D01*
X60078464Y-51562000D01*
X61712974Y-51562000D01*
X61976000Y-51825026D01*
X61976000Y-51825026D01*
G37*
X61976000Y-51825026D02*
X61976000Y-51833798D01*
X61954341Y-51838106D01*
X61828314Y-51922314D01*
X61744106Y-52048341D01*
X61714536Y-52197000D01*
X61714536Y-53213000D01*
X61744106Y-53361659D01*
X61828314Y-53487686D01*
X61954341Y-53571894D01*
X61976000Y-53576202D01*
X61976000Y-53738798D01*
X61954341Y-53743106D01*
X61828314Y-53827314D01*
X61744106Y-53953341D01*
X61714536Y-54102000D01*
X61714536Y-55118000D01*
X61744106Y-55266659D01*
X61828314Y-55392686D01*
X61954341Y-55476894D01*
X62103000Y-55506464D01*
X63119000Y-55506464D01*
X63267659Y-55476894D01*
X63393686Y-55392686D01*
X63477894Y-55266659D01*
X63500000Y-55155524D01*
X63500000Y-55193785D01*
X63558004Y-55333819D01*
X63665180Y-55440996D01*
X63805214Y-55499000D01*
X64166750Y-55499000D01*
X64262000Y-55403750D01*
X64262000Y-54737000D01*
X64516000Y-54737000D01*
X64516000Y-55403750D01*
X64611250Y-55499000D01*
X64972786Y-55499000D01*
X65112820Y-55440996D01*
X65219996Y-55333819D01*
X65278000Y-55193785D01*
X65278000Y-54832250D01*
X65532000Y-54832250D01*
X65532000Y-55193785D01*
X65590004Y-55333819D01*
X65697180Y-55440996D01*
X65837214Y-55499000D01*
X66198750Y-55499000D01*
X66294000Y-55403750D01*
X66294000Y-54737000D01*
X65627250Y-54737000D01*
X65532000Y-54832250D01*
X65278000Y-54832250D01*
X65182750Y-54737000D01*
X64516000Y-54737000D01*
X64262000Y-54737000D01*
X64242000Y-54737000D01*
X64242000Y-54483000D01*
X64262000Y-54483000D01*
X64262000Y-54463000D01*
X64516000Y-54463000D01*
X64516000Y-54483000D01*
X65182750Y-54483000D01*
X65278000Y-54387750D01*
X65278000Y-54165500D01*
X65532000Y-54165500D01*
X65532000Y-54387750D01*
X65627250Y-54483000D01*
X66294000Y-54483000D01*
X66294000Y-54463000D01*
X66548000Y-54463000D01*
X66548000Y-54483000D01*
X66568000Y-54483000D01*
X66568000Y-54737000D01*
X66548000Y-54737000D01*
X66548000Y-55403750D01*
X66643250Y-55499000D01*
X67004786Y-55499000D01*
X67144820Y-55440996D01*
X67251996Y-55333819D01*
X67310000Y-55193785D01*
X67310000Y-55155524D01*
X67332106Y-55266659D01*
X67416314Y-55392686D01*
X67542341Y-55476894D01*
X67691000Y-55506464D01*
X68281539Y-55506464D01*
X64665632Y-58102500D01*
X62801500Y-58102500D01*
X62752899Y-58112167D01*
X62711697Y-58139697D01*
X62484000Y-58367394D01*
X62484000Y-58261250D01*
X62388750Y-58166000D01*
X62027214Y-58166000D01*
X61887180Y-58224004D01*
X61780004Y-58331181D01*
X61722000Y-58471215D01*
X61722000Y-58832750D01*
X61817250Y-58928000D01*
X61923394Y-58928000D01*
X61613952Y-59237442D01*
X61614136Y-59027331D01*
X61495486Y-58740177D01*
X61275979Y-58520286D01*
X61108699Y-58450826D01*
X61332020Y-58358551D01*
X61551911Y-58139044D01*
X61671061Y-57852097D01*
X61671333Y-57541396D01*
X61552683Y-57254242D01*
X61333176Y-57034351D01*
X61046229Y-56915201D01*
X60735528Y-56914929D01*
X60448374Y-57033579D01*
X60228483Y-57253086D01*
X60109333Y-57540033D01*
X60109142Y-57758700D01*
X60078464Y-57789378D01*
X60078464Y-57658000D01*
X60048894Y-57509341D01*
X59964686Y-57383314D01*
X59838659Y-57299106D01*
X59690000Y-57269536D01*
X55118000Y-57269536D01*
X55118000Y-57030464D01*
X59690000Y-57030464D01*
X59838659Y-57000894D01*
X59964686Y-56916686D01*
X60048894Y-56790659D01*
X60078464Y-56642000D01*
X60078464Y-55118000D01*
X60048894Y-54969341D01*
X59964686Y-54843314D01*
X59838659Y-54759106D01*
X59690000Y-54729536D01*
X55118000Y-54729536D01*
X55118000Y-54490464D01*
X59690000Y-54490464D01*
X59838659Y-54460894D01*
X59964686Y-54376686D01*
X60048894Y-54250659D01*
X60078464Y-54102000D01*
X60078464Y-52578000D01*
X60048894Y-52429341D01*
X59964686Y-52303314D01*
X59838659Y-52219106D01*
X59690000Y-52189536D01*
X55118000Y-52189536D01*
X55118000Y-51950464D01*
X59690000Y-51950464D01*
X59838659Y-51920894D01*
X59964686Y-51836686D01*
X60048894Y-51710659D01*
X60078464Y-51562000D01*
X61712974Y-51562000D01*
X61976000Y-51825026D01*
G36*
X66627386Y-51496700D02*
X66792193Y-51606821D01*
X66986596Y-51645490D01*
X73939470Y-51645490D01*
X74117189Y-51823209D01*
X74117189Y-53253391D01*
X73311764Y-54058816D01*
X73288894Y-53943841D01*
X73276828Y-53925783D01*
X73311000Y-53843285D01*
X73311000Y-53781500D01*
X73215750Y-53686250D01*
X72257000Y-53686250D01*
X72257000Y-53704036D01*
X72233241Y-53704036D01*
X72130000Y-53683500D01*
X69570005Y-53683500D01*
X69570000Y-53683499D01*
X69387582Y-53719785D01*
X69351296Y-53727003D01*
X69165888Y-53850888D01*
X69165886Y-53850891D01*
X69064909Y-53951867D01*
X68981686Y-53827314D01*
X68855659Y-53743106D01*
X68770500Y-53726167D01*
X68770500Y-53721005D01*
X68770501Y-53721000D01*
X68745211Y-53593863D01*
X68855659Y-53571894D01*
X68923596Y-53526500D01*
X72130000Y-53526500D01*
X72233241Y-53505964D01*
X72257000Y-53505964D01*
X72257000Y-53523750D01*
X73215750Y-53523750D01*
X73311000Y-53428500D01*
X73311000Y-53366715D01*
X73276828Y-53284217D01*
X73288894Y-53266159D01*
X73318464Y-53117500D01*
X73318464Y-52792500D01*
X73288894Y-52643841D01*
X73279646Y-52630000D01*
X73288894Y-52616159D01*
X73318464Y-52467500D01*
X73318464Y-52142500D01*
X73288894Y-51993841D01*
X73276828Y-51975783D01*
X73311000Y-51893285D01*
X73311000Y-51831500D01*
X73215750Y-51736250D01*
X72257000Y-51736250D01*
X72257000Y-51754036D01*
X72003000Y-51754036D01*
X72003000Y-51736250D01*
X71044250Y-51736250D01*
X70949000Y-51831500D01*
X70949000Y-51893285D01*
X70983172Y-51975783D01*
X70971106Y-51993841D01*
X70941536Y-52142500D01*
X70941536Y-52383500D01*
X69095464Y-52383500D01*
X69095464Y-52197000D01*
X69065894Y-52048341D01*
X68981686Y-51922314D01*
X68855659Y-51838106D01*
X68707000Y-51808536D01*
X67691000Y-51808536D01*
X67542341Y-51838106D01*
X67416314Y-51922314D01*
X67332106Y-52048341D01*
X67310000Y-52159476D01*
X67310000Y-52121215D01*
X67251996Y-51981181D01*
X67144820Y-51874004D01*
X67004786Y-51816000D01*
X66643250Y-51816000D01*
X66548000Y-51911250D01*
X66548000Y-52578000D01*
X66568000Y-52578000D01*
X66568000Y-52832000D01*
X66548000Y-52832000D01*
X66548000Y-52852000D01*
X66294000Y-52852000D01*
X66294000Y-52832000D01*
X65627250Y-52832000D01*
X65532000Y-52927250D01*
X65532000Y-53022500D01*
X65285464Y-53022500D01*
X65285464Y-52197000D01*
X65270390Y-52121215D01*
X65532000Y-52121215D01*
X65532000Y-52482750D01*
X65627250Y-52578000D01*
X66294000Y-52578000D01*
X66294000Y-51911250D01*
X66198750Y-51816000D01*
X65837214Y-51816000D01*
X65697180Y-51874004D01*
X65590004Y-51981181D01*
X65532000Y-52121215D01*
X65270390Y-52121215D01*
X65255894Y-52048341D01*
X65171686Y-51922314D01*
X65054204Y-51843816D01*
X65488420Y-51409600D01*
X66540286Y-51409600D01*
X66627386Y-51496700D01*
X66627386Y-51496700D01*
G37*
X66627386Y-51496700D02*
X66792193Y-51606821D01*
X66986596Y-51645490D01*
X73939470Y-51645490D01*
X74117189Y-51823209D01*
X74117189Y-53253391D01*
X73311764Y-54058816D01*
X73288894Y-53943841D01*
X73276828Y-53925783D01*
X73311000Y-53843285D01*
X73311000Y-53781500D01*
X73215750Y-53686250D01*
X72257000Y-53686250D01*
X72257000Y-53704036D01*
X72233241Y-53704036D01*
X72130000Y-53683500D01*
X69570005Y-53683500D01*
X69570000Y-53683499D01*
X69387582Y-53719785D01*
X69351296Y-53727003D01*
X69165888Y-53850888D01*
X69165886Y-53850891D01*
X69064909Y-53951867D01*
X68981686Y-53827314D01*
X68855659Y-53743106D01*
X68770500Y-53726167D01*
X68770500Y-53721005D01*
X68770501Y-53721000D01*
X68745211Y-53593863D01*
X68855659Y-53571894D01*
X68923596Y-53526500D01*
X72130000Y-53526500D01*
X72233241Y-53505964D01*
X72257000Y-53505964D01*
X72257000Y-53523750D01*
X73215750Y-53523750D01*
X73311000Y-53428500D01*
X73311000Y-53366715D01*
X73276828Y-53284217D01*
X73288894Y-53266159D01*
X73318464Y-53117500D01*
X73318464Y-52792500D01*
X73288894Y-52643841D01*
X73279646Y-52630000D01*
X73288894Y-52616159D01*
X73318464Y-52467500D01*
X73318464Y-52142500D01*
X73288894Y-51993841D01*
X73276828Y-51975783D01*
X73311000Y-51893285D01*
X73311000Y-51831500D01*
X73215750Y-51736250D01*
X72257000Y-51736250D01*
X72257000Y-51754036D01*
X72003000Y-51754036D01*
X72003000Y-51736250D01*
X71044250Y-51736250D01*
X70949000Y-51831500D01*
X70949000Y-51893285D01*
X70983172Y-51975783D01*
X70971106Y-51993841D01*
X70941536Y-52142500D01*
X70941536Y-52383500D01*
X69095464Y-52383500D01*
X69095464Y-52197000D01*
X69065894Y-52048341D01*
X68981686Y-51922314D01*
X68855659Y-51838106D01*
X68707000Y-51808536D01*
X67691000Y-51808536D01*
X67542341Y-51838106D01*
X67416314Y-51922314D01*
X67332106Y-52048341D01*
X67310000Y-52159476D01*
X67310000Y-52121215D01*
X67251996Y-51981181D01*
X67144820Y-51874004D01*
X67004786Y-51816000D01*
X66643250Y-51816000D01*
X66548000Y-51911250D01*
X66548000Y-52578000D01*
X66568000Y-52578000D01*
X66568000Y-52832000D01*
X66548000Y-52832000D01*
X66548000Y-52852000D01*
X66294000Y-52852000D01*
X66294000Y-52832000D01*
X65627250Y-52832000D01*
X65532000Y-52927250D01*
X65532000Y-53022500D01*
X65285464Y-53022500D01*
X65285464Y-52197000D01*
X65270390Y-52121215D01*
X65532000Y-52121215D01*
X65532000Y-52482750D01*
X65627250Y-52578000D01*
X66294000Y-52578000D01*
X66294000Y-51911250D01*
X66198750Y-51816000D01*
X65837214Y-51816000D01*
X65697180Y-51874004D01*
X65590004Y-51981181D01*
X65532000Y-52121215D01*
X65270390Y-52121215D01*
X65255894Y-52048341D01*
X65171686Y-51922314D01*
X65054204Y-51843816D01*
X65488420Y-51409600D01*
X66540286Y-51409600D01*
X66627386Y-51496700D01*
G36*
X85283748Y-48245858D02*
X85269605Y-48260000D01*
X86023303Y-49013698D01*
X86207179Y-48914697D01*
X86233000Y-48840221D01*
X86233000Y-51818000D01*
X82357484Y-51879516D01*
X82309043Y-51889953D01*
X82269697Y-51916697D01*
X81350513Y-52835881D01*
X81350513Y-50596810D01*
X81978425Y-50596810D01*
X82172828Y-50558141D01*
X82337635Y-50448020D01*
X82654133Y-50131522D01*
X82793004Y-50103899D01*
X82999013Y-49966248D01*
X83136664Y-49760239D01*
X83185000Y-49517235D01*
X83185000Y-49371766D01*
X83268458Y-49337282D01*
X83412688Y-49193303D01*
X84336302Y-49193303D01*
X84435303Y-49377179D01*
X84912664Y-49542681D01*
X85417023Y-49512906D01*
X85744697Y-49377179D01*
X85843698Y-49193303D01*
X85090000Y-48439605D01*
X84336302Y-49193303D01*
X83412688Y-49193303D01*
X83626026Y-48980337D01*
X83819779Y-48513727D01*
X83819968Y-48296929D01*
X83837094Y-48587023D01*
X83972821Y-48914697D01*
X84156697Y-49013698D01*
X84910395Y-48260000D01*
X84896253Y-48245858D01*
X85075858Y-48066253D01*
X85090000Y-48080395D01*
X85104143Y-48066253D01*
X85283748Y-48245858D01*
X85283748Y-48245858D01*
G37*
X85283748Y-48245858D02*
X85269605Y-48260000D01*
X86023303Y-49013698D01*
X86207179Y-48914697D01*
X86233000Y-48840221D01*
X86233000Y-51818000D01*
X82357484Y-51879516D01*
X82309043Y-51889953D01*
X82269697Y-51916697D01*
X81350513Y-52835881D01*
X81350513Y-50596810D01*
X81978425Y-50596810D01*
X82172828Y-50558141D01*
X82337635Y-50448020D01*
X82654133Y-50131522D01*
X82793004Y-50103899D01*
X82999013Y-49966248D01*
X83136664Y-49760239D01*
X83185000Y-49517235D01*
X83185000Y-49371766D01*
X83268458Y-49337282D01*
X83412688Y-49193303D01*
X84336302Y-49193303D01*
X84435303Y-49377179D01*
X84912664Y-49542681D01*
X85417023Y-49512906D01*
X85744697Y-49377179D01*
X85843698Y-49193303D01*
X85090000Y-48439605D01*
X84336302Y-49193303D01*
X83412688Y-49193303D01*
X83626026Y-48980337D01*
X83819779Y-48513727D01*
X83819968Y-48296929D01*
X83837094Y-48587023D01*
X83972821Y-48914697D01*
X84156697Y-49013698D01*
X84910395Y-48260000D01*
X84896253Y-48245858D01*
X85075858Y-48066253D01*
X85090000Y-48080395D01*
X85104143Y-48066253D01*
X85283748Y-48245858D01*
G36*
X68772718Y-48978458D02*
X69129663Y-49336026D01*
X69596273Y-49529779D01*
X70101510Y-49530220D01*
X70568458Y-49337282D01*
X70597892Y-49307900D01*
X70781958Y-49491966D01*
X70787336Y-49519004D01*
X70924987Y-49725013D01*
X71130996Y-49862664D01*
X71273397Y-49890989D01*
X71778204Y-50395796D01*
X71942362Y-50505483D01*
X72136000Y-50544000D01*
X75957420Y-50544000D01*
X76202000Y-50788580D01*
X76202000Y-51562000D01*
X76226943Y-51687399D01*
X75887472Y-51687399D01*
X75772968Y-51572695D01*
X75486021Y-51453545D01*
X75175320Y-51453273D01*
X75107069Y-51481474D01*
X75094520Y-51418386D01*
X75094520Y-51418385D01*
X74984399Y-51253579D01*
X74509100Y-50778280D01*
X74344293Y-50668159D01*
X74149890Y-50629490D01*
X67726957Y-50629490D01*
X67779331Y-50551108D01*
X67788488Y-50505073D01*
X67818000Y-50356704D01*
X67818000Y-49424241D01*
X68028458Y-49337282D01*
X68386026Y-48980337D01*
X68579779Y-48513727D01*
X68579781Y-48511512D01*
X68772718Y-48978458D01*
X68772718Y-48978458D01*
G37*
X68772718Y-48978458D02*
X69129663Y-49336026D01*
X69596273Y-49529779D01*
X70101510Y-49530220D01*
X70568458Y-49337282D01*
X70597892Y-49307900D01*
X70781958Y-49491966D01*
X70787336Y-49519004D01*
X70924987Y-49725013D01*
X71130996Y-49862664D01*
X71273397Y-49890989D01*
X71778204Y-50395796D01*
X71942362Y-50505483D01*
X72136000Y-50544000D01*
X75957420Y-50544000D01*
X76202000Y-50788580D01*
X76202000Y-51562000D01*
X76226943Y-51687399D01*
X75887472Y-51687399D01*
X75772968Y-51572695D01*
X75486021Y-51453545D01*
X75175320Y-51453273D01*
X75107069Y-51481474D01*
X75094520Y-51418386D01*
X75094520Y-51418385D01*
X74984399Y-51253579D01*
X74509100Y-50778280D01*
X74344293Y-50668159D01*
X74149890Y-50629490D01*
X67726957Y-50629490D01*
X67779331Y-50551108D01*
X67788488Y-50505073D01*
X67818000Y-50356704D01*
X67818000Y-49424241D01*
X68028458Y-49337282D01*
X68386026Y-48980337D01*
X68579779Y-48513727D01*
X68579781Y-48511512D01*
X68772718Y-48978458D01*
G36*
X60952536Y-49149000D02*
X60982106Y-49297659D01*
X61066314Y-49423686D01*
X61192341Y-49507894D01*
X61291223Y-49527563D01*
X61145004Y-49746395D01*
X61087000Y-50038000D01*
X60078464Y-50038000D01*
X60048894Y-49889341D01*
X59964686Y-49763314D01*
X59838659Y-49679106D01*
X59690000Y-49649536D01*
X57957064Y-49649536D01*
X58161055Y-49445900D01*
X58411714Y-48842247D01*
X58412284Y-48188621D01*
X58162680Y-47584531D01*
X58076300Y-47498000D01*
X60952536Y-47498000D01*
X60952536Y-49149000D01*
X60952536Y-49149000D01*
G37*
X60952536Y-49149000D02*
X60982106Y-49297659D01*
X61066314Y-49423686D01*
X61192341Y-49507894D01*
X61291223Y-49527563D01*
X61145004Y-49746395D01*
X61087000Y-50038000D01*
X60078464Y-50038000D01*
X60048894Y-49889341D01*
X59964686Y-49763314D01*
X59838659Y-49679106D01*
X59690000Y-49649536D01*
X57957064Y-49649536D01*
X58161055Y-49445900D01*
X58411714Y-48842247D01*
X58412284Y-48188621D01*
X58162680Y-47584531D01*
X58076300Y-47498000D01*
X60952536Y-47498000D01*
X60952536Y-49149000D01*
G36*
X64963748Y-48245858D02*
X64949605Y-48260000D01*
X65703303Y-49013698D01*
X65887179Y-48914697D01*
X66039812Y-48474453D01*
X66039780Y-48511510D01*
X66232718Y-48978458D01*
X66589663Y-49336026D01*
X66802000Y-49424196D01*
X66802000Y-49650360D01*
X66587538Y-49435523D01*
X66282221Y-49308745D01*
X65951629Y-49308456D01*
X65784288Y-49377600D01*
X65423681Y-49377600D01*
X65424697Y-49377179D01*
X65523698Y-49193303D01*
X64770000Y-48439605D01*
X64016302Y-49193303D01*
X64115303Y-49377179D01*
X64116517Y-49377600D01*
X63915835Y-49377600D01*
X63656419Y-49118185D01*
X63596263Y-49077990D01*
X63507464Y-49018656D01*
X63507464Y-48423900D01*
X63517094Y-48587023D01*
X63652821Y-48914697D01*
X63836697Y-49013698D01*
X64590395Y-48260000D01*
X64576253Y-48245858D01*
X64755858Y-48066253D01*
X64770000Y-48080395D01*
X64784143Y-48066253D01*
X64963748Y-48245858D01*
X64963748Y-48245858D01*
G37*
X64963748Y-48245858D02*
X64949605Y-48260000D01*
X65703303Y-49013698D01*
X65887179Y-48914697D01*
X66039812Y-48474453D01*
X66039780Y-48511510D01*
X66232718Y-48978458D01*
X66589663Y-49336026D01*
X66802000Y-49424196D01*
X66802000Y-49650360D01*
X66587538Y-49435523D01*
X66282221Y-49308745D01*
X65951629Y-49308456D01*
X65784288Y-49377600D01*
X65423681Y-49377600D01*
X65424697Y-49377179D01*
X65523698Y-49193303D01*
X64770000Y-48439605D01*
X64016302Y-49193303D01*
X64115303Y-49377179D01*
X64116517Y-49377600D01*
X63915835Y-49377600D01*
X63656419Y-49118185D01*
X63596263Y-49077990D01*
X63507464Y-49018656D01*
X63507464Y-48423900D01*
X63517094Y-48587023D01*
X63652821Y-48914697D01*
X63836697Y-49013698D01*
X64590395Y-48260000D01*
X64576253Y-48245858D01*
X64755858Y-48066253D01*
X64770000Y-48080395D01*
X64784143Y-48066253D01*
X64963748Y-48245858D01*
G36*
X89150706Y-61438859D02*
X89234914Y-61564886D01*
X89360941Y-61649094D01*
X89509600Y-61678664D01*
X90525600Y-61678664D01*
X90674259Y-61649094D01*
X90800286Y-61564886D01*
X90884494Y-61438859D01*
X90888802Y-61417200D01*
X90924398Y-61417200D01*
X90928706Y-61438859D01*
X91012914Y-61564886D01*
X91138941Y-61649094D01*
X91287600Y-61678664D01*
X91633255Y-61678664D01*
X91681997Y-64262000D01*
X91284051Y-64262000D01*
X91335394Y-64185159D01*
X91364964Y-64036500D01*
X91364964Y-62836500D01*
X91335394Y-62687841D01*
X91251186Y-62561814D01*
X91125159Y-62477606D01*
X90976500Y-62448036D01*
X89776500Y-62448036D01*
X89627841Y-62477606D01*
X89501814Y-62561814D01*
X89417606Y-62687841D01*
X89394998Y-62801500D01*
X88715528Y-62801500D01*
X88707282Y-62781542D01*
X88350337Y-62423974D01*
X88265000Y-62388539D01*
X88265000Y-61417200D01*
X89146398Y-61417200D01*
X89150706Y-61438859D01*
X89150706Y-61438859D01*
G37*
X89150706Y-61438859D02*
X89234914Y-61564886D01*
X89360941Y-61649094D01*
X89509600Y-61678664D01*
X90525600Y-61678664D01*
X90674259Y-61649094D01*
X90800286Y-61564886D01*
X90884494Y-61438859D01*
X90888802Y-61417200D01*
X90924398Y-61417200D01*
X90928706Y-61438859D01*
X91012914Y-61564886D01*
X91138941Y-61649094D01*
X91287600Y-61678664D01*
X91633255Y-61678664D01*
X91681997Y-64262000D01*
X91284051Y-64262000D01*
X91335394Y-64185159D01*
X91364964Y-64036500D01*
X91364964Y-62836500D01*
X91335394Y-62687841D01*
X91251186Y-62561814D01*
X91125159Y-62477606D01*
X90976500Y-62448036D01*
X89776500Y-62448036D01*
X89627841Y-62477606D01*
X89501814Y-62561814D01*
X89417606Y-62687841D01*
X89394998Y-62801500D01*
X88715528Y-62801500D01*
X88707282Y-62781542D01*
X88350337Y-62423974D01*
X88265000Y-62388539D01*
X88265000Y-61417200D01*
X89146398Y-61417200D01*
X89150706Y-61438859D01*
G36*
X85979000Y-54659150D02*
X85754032Y-54565736D01*
X85443331Y-54565464D01*
X85156177Y-54684114D01*
X84936286Y-54903621D01*
X84817136Y-55190568D01*
X84816864Y-55501269D01*
X84935514Y-55788423D01*
X85155021Y-56008314D01*
X85441968Y-56127464D01*
X85480872Y-56127498D01*
X85979000Y-56625626D01*
X85979000Y-56769000D01*
X85988667Y-56817601D01*
X86016197Y-56858803D01*
X86057399Y-56886333D01*
X86106000Y-56896000D01*
X86249374Y-56896000D01*
X86995000Y-57641626D01*
X86995000Y-62388234D01*
X86911542Y-62422718D01*
X86553974Y-62779663D01*
X86360221Y-63246273D01*
X86360032Y-63463071D01*
X86342906Y-63172977D01*
X86207179Y-62845303D01*
X86023303Y-62746302D01*
X85269605Y-63500000D01*
X85283748Y-63514143D01*
X85104143Y-63693748D01*
X85090000Y-63679605D01*
X85075858Y-63693748D01*
X84896253Y-63514143D01*
X84910395Y-63500000D01*
X84156697Y-62746302D01*
X83972821Y-62845303D01*
X83820188Y-63285547D01*
X83820220Y-63248490D01*
X83627282Y-62781542D01*
X83412812Y-62566697D01*
X84336302Y-62566697D01*
X85090000Y-63320395D01*
X85843698Y-62566697D01*
X85744697Y-62382821D01*
X85267336Y-62217319D01*
X84762977Y-62247094D01*
X84435303Y-62382821D01*
X84336302Y-62566697D01*
X83412812Y-62566697D01*
X83270337Y-62423974D01*
X82803727Y-62230221D01*
X82298490Y-62229780D01*
X82213092Y-62265066D01*
X81627413Y-61679387D01*
X81549001Y-61626994D01*
X81549001Y-61095039D01*
X81510332Y-60900636D01*
X81400211Y-60735829D01*
X81181765Y-60517383D01*
X81131211Y-60441723D01*
X79352487Y-58663000D01*
X80764536Y-58663000D01*
X80764536Y-58674000D01*
X80794106Y-58822659D01*
X80878314Y-58948686D01*
X81004341Y-59032894D01*
X81153000Y-59062464D01*
X82169000Y-59062464D01*
X82317659Y-59032894D01*
X82443686Y-58948686D01*
X82527894Y-58822659D01*
X82550000Y-58711524D01*
X82572106Y-58822659D01*
X82656314Y-58948686D01*
X82782341Y-59032894D01*
X82931000Y-59062464D01*
X83947000Y-59062464D01*
X84095659Y-59032894D01*
X84221686Y-58948686D01*
X84305894Y-58822659D01*
X84335464Y-58674000D01*
X84335464Y-57658000D01*
X84305894Y-57509341D01*
X84221686Y-57383314D01*
X84095659Y-57299106D01*
X83947000Y-57269536D01*
X83920254Y-57269536D01*
X83908331Y-57209597D01*
X83868509Y-57150000D01*
X84022786Y-57150000D01*
X84162820Y-57091996D01*
X84269996Y-56984819D01*
X84328000Y-56844785D01*
X84328000Y-56483250D01*
X84232750Y-56388000D01*
X83566000Y-56388000D01*
X83566000Y-56408000D01*
X83312000Y-56408000D01*
X83312000Y-56388000D01*
X83292000Y-56388000D01*
X83292000Y-56134000D01*
X83312000Y-56134000D01*
X83312000Y-55467250D01*
X83566000Y-55467250D01*
X83566000Y-56134000D01*
X84232750Y-56134000D01*
X84328000Y-56038750D01*
X84328000Y-55677215D01*
X84269996Y-55537181D01*
X84162820Y-55430004D01*
X84022786Y-55372000D01*
X83661250Y-55372000D01*
X83566000Y-55467250D01*
X83312000Y-55467250D01*
X83216750Y-55372000D01*
X82855214Y-55372000D01*
X82715180Y-55430004D01*
X82608004Y-55537181D01*
X82550000Y-55677215D01*
X82550000Y-55715476D01*
X82527894Y-55604341D01*
X82443686Y-55478314D01*
X82317659Y-55394106D01*
X82169000Y-55364536D01*
X81153000Y-55364536D01*
X81004341Y-55394106D01*
X80878314Y-55478314D01*
X80794106Y-55604341D01*
X80793551Y-55607129D01*
X80490331Y-55606864D01*
X80203177Y-55725514D01*
X79983286Y-55945021D01*
X79864136Y-56231968D01*
X79864091Y-56283500D01*
X77730000Y-56283500D01*
X77626759Y-56304036D01*
X77603000Y-56304036D01*
X77603000Y-56286250D01*
X76644250Y-56286250D01*
X76549000Y-56381500D01*
X76549000Y-56443285D01*
X76583172Y-56525783D01*
X76571106Y-56543841D01*
X76541536Y-56692500D01*
X76541536Y-57017500D01*
X76571106Y-57166159D01*
X76580354Y-57180000D01*
X76571106Y-57193841D01*
X76541536Y-57342500D01*
X76541536Y-57667500D01*
X76571106Y-57816159D01*
X76580354Y-57830000D01*
X76571106Y-57843841D01*
X76541536Y-57992500D01*
X76541536Y-58317500D01*
X76571106Y-58466159D01*
X76580354Y-58480000D01*
X76571106Y-58493841D01*
X76541536Y-58642500D01*
X76541536Y-58967500D01*
X76571106Y-59116159D01*
X76580354Y-59130000D01*
X76571106Y-59143841D01*
X76541536Y-59292500D01*
X76541536Y-59617500D01*
X76542731Y-59623509D01*
X76481597Y-59635669D01*
X76316790Y-59745789D01*
X75942390Y-60120190D01*
X75832269Y-60284997D01*
X75793600Y-60479400D01*
X75793600Y-61970867D01*
X75714936Y-62088596D01*
X75666600Y-62331600D01*
X75693593Y-62467306D01*
X75650337Y-62423974D01*
X75565000Y-62388539D01*
X75565000Y-61976000D01*
X75516664Y-61732996D01*
X75379013Y-61526987D01*
X75214448Y-61417028D01*
X73543210Y-59745790D01*
X73378403Y-59635669D01*
X73317269Y-59623509D01*
X73318464Y-59617500D01*
X73318464Y-59292500D01*
X73288894Y-59143841D01*
X73279646Y-59130000D01*
X73288894Y-59116159D01*
X73318464Y-58967500D01*
X73318464Y-58642500D01*
X73288894Y-58493841D01*
X73279646Y-58480000D01*
X73288894Y-58466159D01*
X73318464Y-58317500D01*
X73318464Y-57992500D01*
X73288894Y-57843841D01*
X73279646Y-57830000D01*
X73288894Y-57816159D01*
X73318464Y-57667500D01*
X73318464Y-57342500D01*
X73288894Y-57193841D01*
X73279646Y-57180000D01*
X73288894Y-57166159D01*
X73318464Y-57017500D01*
X73318464Y-56692500D01*
X73288894Y-56543841D01*
X73279646Y-56530000D01*
X73288894Y-56516159D01*
X73318464Y-56367500D01*
X73318464Y-56042500D01*
X73288894Y-55893841D01*
X73279646Y-55880000D01*
X73288894Y-55866159D01*
X73318464Y-55717500D01*
X73318464Y-55499000D01*
X74628521Y-55499000D01*
X74697662Y-55568262D01*
X74984609Y-55687412D01*
X75295310Y-55687684D01*
X75582464Y-55569034D01*
X75652621Y-55499000D01*
X76541536Y-55499000D01*
X76541536Y-55717500D01*
X76571106Y-55866159D01*
X76583172Y-55884217D01*
X76549000Y-55966715D01*
X76549000Y-56028500D01*
X76644250Y-56123750D01*
X77603000Y-56123750D01*
X77603000Y-56105964D01*
X77626759Y-56105964D01*
X77730000Y-56126500D01*
X79486378Y-56126500D01*
X79486383Y-56126501D01*
X79668801Y-56090215D01*
X79705087Y-56082997D01*
X79890495Y-55959112D01*
X80811266Y-55038341D01*
X80878314Y-55138686D01*
X81004341Y-55222894D01*
X81153000Y-55252464D01*
X82169000Y-55252464D01*
X82317659Y-55222894D01*
X82443686Y-55138686D01*
X82527894Y-55012659D01*
X82550000Y-54901524D01*
X82550000Y-54939785D01*
X82608004Y-55079819D01*
X82715180Y-55186996D01*
X82855214Y-55245000D01*
X83216750Y-55245000D01*
X83312000Y-55149750D01*
X83312000Y-54483000D01*
X83566000Y-54483000D01*
X83566000Y-55149750D01*
X83661250Y-55245000D01*
X84022786Y-55245000D01*
X84162820Y-55186996D01*
X84269996Y-55079819D01*
X84328000Y-54939785D01*
X84328000Y-54578250D01*
X84232750Y-54483000D01*
X83566000Y-54483000D01*
X83312000Y-54483000D01*
X83292000Y-54483000D01*
X83292000Y-54229000D01*
X83312000Y-54229000D01*
X83312000Y-53562250D01*
X83566000Y-53562250D01*
X83566000Y-54229000D01*
X84232750Y-54229000D01*
X84328000Y-54133750D01*
X84328000Y-53772215D01*
X84269996Y-53632181D01*
X84162820Y-53525004D01*
X84022786Y-53467000D01*
X83661250Y-53467000D01*
X83566000Y-53562250D01*
X83312000Y-53562250D01*
X83216750Y-53467000D01*
X82855214Y-53467000D01*
X82715180Y-53525004D01*
X82608004Y-53632181D01*
X82550000Y-53772215D01*
X82550000Y-53810476D01*
X82527894Y-53699341D01*
X82443686Y-53573314D01*
X82317659Y-53489106D01*
X82169000Y-53459536D01*
X81848070Y-53459536D01*
X82475606Y-52832000D01*
X85979000Y-52832000D01*
X85979000Y-54659150D01*
X85979000Y-54659150D01*
G37*
X85979000Y-54659150D02*
X85754032Y-54565736D01*
X85443331Y-54565464D01*
X85156177Y-54684114D01*
X84936286Y-54903621D01*
X84817136Y-55190568D01*
X84816864Y-55501269D01*
X84935514Y-55788423D01*
X85155021Y-56008314D01*
X85441968Y-56127464D01*
X85480872Y-56127498D01*
X85979000Y-56625626D01*
X85979000Y-56769000D01*
X85988667Y-56817601D01*
X86016197Y-56858803D01*
X86057399Y-56886333D01*
X86106000Y-56896000D01*
X86249374Y-56896000D01*
X86995000Y-57641626D01*
X86995000Y-62388234D01*
X86911542Y-62422718D01*
X86553974Y-62779663D01*
X86360221Y-63246273D01*
X86360032Y-63463071D01*
X86342906Y-63172977D01*
X86207179Y-62845303D01*
X86023303Y-62746302D01*
X85269605Y-63500000D01*
X85283748Y-63514143D01*
X85104143Y-63693748D01*
X85090000Y-63679605D01*
X85075858Y-63693748D01*
X84896253Y-63514143D01*
X84910395Y-63500000D01*
X84156697Y-62746302D01*
X83972821Y-62845303D01*
X83820188Y-63285547D01*
X83820220Y-63248490D01*
X83627282Y-62781542D01*
X83412812Y-62566697D01*
X84336302Y-62566697D01*
X85090000Y-63320395D01*
X85843698Y-62566697D01*
X85744697Y-62382821D01*
X85267336Y-62217319D01*
X84762977Y-62247094D01*
X84435303Y-62382821D01*
X84336302Y-62566697D01*
X83412812Y-62566697D01*
X83270337Y-62423974D01*
X82803727Y-62230221D01*
X82298490Y-62229780D01*
X82213092Y-62265066D01*
X81627413Y-61679387D01*
X81549001Y-61626994D01*
X81549001Y-61095039D01*
X81510332Y-60900636D01*
X81400211Y-60735829D01*
X81181765Y-60517383D01*
X81131211Y-60441723D01*
X79352487Y-58663000D01*
X80764536Y-58663000D01*
X80764536Y-58674000D01*
X80794106Y-58822659D01*
X80878314Y-58948686D01*
X81004341Y-59032894D01*
X81153000Y-59062464D01*
X82169000Y-59062464D01*
X82317659Y-59032894D01*
X82443686Y-58948686D01*
X82527894Y-58822659D01*
X82550000Y-58711524D01*
X82572106Y-58822659D01*
X82656314Y-58948686D01*
X82782341Y-59032894D01*
X82931000Y-59062464D01*
X83947000Y-59062464D01*
X84095659Y-59032894D01*
X84221686Y-58948686D01*
X84305894Y-58822659D01*
X84335464Y-58674000D01*
X84335464Y-57658000D01*
X84305894Y-57509341D01*
X84221686Y-57383314D01*
X84095659Y-57299106D01*
X83947000Y-57269536D01*
X83920254Y-57269536D01*
X83908331Y-57209597D01*
X83868509Y-57150000D01*
X84022786Y-57150000D01*
X84162820Y-57091996D01*
X84269996Y-56984819D01*
X84328000Y-56844785D01*
X84328000Y-56483250D01*
X84232750Y-56388000D01*
X83566000Y-56388000D01*
X83566000Y-56408000D01*
X83312000Y-56408000D01*
X83312000Y-56388000D01*
X83292000Y-56388000D01*
X83292000Y-56134000D01*
X83312000Y-56134000D01*
X83312000Y-55467250D01*
X83566000Y-55467250D01*
X83566000Y-56134000D01*
X84232750Y-56134000D01*
X84328000Y-56038750D01*
X84328000Y-55677215D01*
X84269996Y-55537181D01*
X84162820Y-55430004D01*
X84022786Y-55372000D01*
X83661250Y-55372000D01*
X83566000Y-55467250D01*
X83312000Y-55467250D01*
X83216750Y-55372000D01*
X82855214Y-55372000D01*
X82715180Y-55430004D01*
X82608004Y-55537181D01*
X82550000Y-55677215D01*
X82550000Y-55715476D01*
X82527894Y-55604341D01*
X82443686Y-55478314D01*
X82317659Y-55394106D01*
X82169000Y-55364536D01*
X81153000Y-55364536D01*
X81004341Y-55394106D01*
X80878314Y-55478314D01*
X80794106Y-55604341D01*
X80793551Y-55607129D01*
X80490331Y-55606864D01*
X80203177Y-55725514D01*
X79983286Y-55945021D01*
X79864136Y-56231968D01*
X79864091Y-56283500D01*
X77730000Y-56283500D01*
X77626759Y-56304036D01*
X77603000Y-56304036D01*
X77603000Y-56286250D01*
X76644250Y-56286250D01*
X76549000Y-56381500D01*
X76549000Y-56443285D01*
X76583172Y-56525783D01*
X76571106Y-56543841D01*
X76541536Y-56692500D01*
X76541536Y-57017500D01*
X76571106Y-57166159D01*
X76580354Y-57180000D01*
X76571106Y-57193841D01*
X76541536Y-57342500D01*
X76541536Y-57667500D01*
X76571106Y-57816159D01*
X76580354Y-57830000D01*
X76571106Y-57843841D01*
X76541536Y-57992500D01*
X76541536Y-58317500D01*
X76571106Y-58466159D01*
X76580354Y-58480000D01*
X76571106Y-58493841D01*
X76541536Y-58642500D01*
X76541536Y-58967500D01*
X76571106Y-59116159D01*
X76580354Y-59130000D01*
X76571106Y-59143841D01*
X76541536Y-59292500D01*
X76541536Y-59617500D01*
X76542731Y-59623509D01*
X76481597Y-59635669D01*
X76316790Y-59745789D01*
X75942390Y-60120190D01*
X75832269Y-60284997D01*
X75793600Y-60479400D01*
X75793600Y-61970867D01*
X75714936Y-62088596D01*
X75666600Y-62331600D01*
X75693593Y-62467306D01*
X75650337Y-62423974D01*
X75565000Y-62388539D01*
X75565000Y-61976000D01*
X75516664Y-61732996D01*
X75379013Y-61526987D01*
X75214448Y-61417028D01*
X73543210Y-59745790D01*
X73378403Y-59635669D01*
X73317269Y-59623509D01*
X73318464Y-59617500D01*
X73318464Y-59292500D01*
X73288894Y-59143841D01*
X73279646Y-59130000D01*
X73288894Y-59116159D01*
X73318464Y-58967500D01*
X73318464Y-58642500D01*
X73288894Y-58493841D01*
X73279646Y-58480000D01*
X73288894Y-58466159D01*
X73318464Y-58317500D01*
X73318464Y-57992500D01*
X73288894Y-57843841D01*
X73279646Y-57830000D01*
X73288894Y-57816159D01*
X73318464Y-57667500D01*
X73318464Y-57342500D01*
X73288894Y-57193841D01*
X73279646Y-57180000D01*
X73288894Y-57166159D01*
X73318464Y-57017500D01*
X73318464Y-56692500D01*
X73288894Y-56543841D01*
X73279646Y-56530000D01*
X73288894Y-56516159D01*
X73318464Y-56367500D01*
X73318464Y-56042500D01*
X73288894Y-55893841D01*
X73279646Y-55880000D01*
X73288894Y-55866159D01*
X73318464Y-55717500D01*
X73318464Y-55499000D01*
X74628521Y-55499000D01*
X74697662Y-55568262D01*
X74984609Y-55687412D01*
X75295310Y-55687684D01*
X75582464Y-55569034D01*
X75652621Y-55499000D01*
X76541536Y-55499000D01*
X76541536Y-55717500D01*
X76571106Y-55866159D01*
X76583172Y-55884217D01*
X76549000Y-55966715D01*
X76549000Y-56028500D01*
X76644250Y-56123750D01*
X77603000Y-56123750D01*
X77603000Y-56105964D01*
X77626759Y-56105964D01*
X77730000Y-56126500D01*
X79486378Y-56126500D01*
X79486383Y-56126501D01*
X79668801Y-56090215D01*
X79705087Y-56082997D01*
X79890495Y-55959112D01*
X80811266Y-55038341D01*
X80878314Y-55138686D01*
X81004341Y-55222894D01*
X81153000Y-55252464D01*
X82169000Y-55252464D01*
X82317659Y-55222894D01*
X82443686Y-55138686D01*
X82527894Y-55012659D01*
X82550000Y-54901524D01*
X82550000Y-54939785D01*
X82608004Y-55079819D01*
X82715180Y-55186996D01*
X82855214Y-55245000D01*
X83216750Y-55245000D01*
X83312000Y-55149750D01*
X83312000Y-54483000D01*
X83566000Y-54483000D01*
X83566000Y-55149750D01*
X83661250Y-55245000D01*
X84022786Y-55245000D01*
X84162820Y-55186996D01*
X84269996Y-55079819D01*
X84328000Y-54939785D01*
X84328000Y-54578250D01*
X84232750Y-54483000D01*
X83566000Y-54483000D01*
X83312000Y-54483000D01*
X83292000Y-54483000D01*
X83292000Y-54229000D01*
X83312000Y-54229000D01*
X83312000Y-53562250D01*
X83566000Y-53562250D01*
X83566000Y-54229000D01*
X84232750Y-54229000D01*
X84328000Y-54133750D01*
X84328000Y-53772215D01*
X84269996Y-53632181D01*
X84162820Y-53525004D01*
X84022786Y-53467000D01*
X83661250Y-53467000D01*
X83566000Y-53562250D01*
X83312000Y-53562250D01*
X83216750Y-53467000D01*
X82855214Y-53467000D01*
X82715180Y-53525004D01*
X82608004Y-53632181D01*
X82550000Y-53772215D01*
X82550000Y-53810476D01*
X82527894Y-53699341D01*
X82443686Y-53573314D01*
X82317659Y-53489106D01*
X82169000Y-53459536D01*
X81848070Y-53459536D01*
X82475606Y-52832000D01*
X85979000Y-52832000D01*
X85979000Y-54659150D01*
G36*
X74301899Y-61941319D02*
X74295000Y-61976000D01*
X74295000Y-62388234D01*
X74211542Y-62422718D01*
X73853974Y-62779663D01*
X73660221Y-63246273D01*
X73660219Y-63248488D01*
X73467282Y-62781542D01*
X73110337Y-62423974D01*
X73025000Y-62388539D01*
X73025000Y-61950600D01*
X72976664Y-61707596D01*
X72839013Y-61501587D01*
X72633004Y-61363936D01*
X72494134Y-61336313D01*
X71813784Y-60655964D01*
X72930000Y-60655964D01*
X73002185Y-60641605D01*
X74301899Y-61941319D01*
X74301899Y-61941319D01*
G37*
X74301899Y-61941319D02*
X74295000Y-61976000D01*
X74295000Y-62388234D01*
X74211542Y-62422718D01*
X73853974Y-62779663D01*
X73660221Y-63246273D01*
X73660219Y-63248488D01*
X73467282Y-62781542D01*
X73110337Y-62423974D01*
X73025000Y-62388539D01*
X73025000Y-61950600D01*
X72976664Y-61707596D01*
X72839013Y-61501587D01*
X72633004Y-61363936D01*
X72494134Y-61336313D01*
X71813784Y-60655964D01*
X72930000Y-60655964D01*
X73002185Y-60641605D01*
X74301899Y-61941319D01*
G36*
X70494999Y-60563599D02*
X70533668Y-60758002D01*
X70643789Y-60922809D01*
X71755000Y-62034021D01*
X71755000Y-62388234D01*
X71671542Y-62422718D01*
X71313974Y-62779663D01*
X71120221Y-63246273D01*
X71120219Y-63248488D01*
X70927282Y-62781542D01*
X70570337Y-62423974D01*
X70485000Y-62388539D01*
X70485000Y-61899800D01*
X70436664Y-61656796D01*
X70358000Y-61539067D01*
X70358000Y-60241420D01*
X70494999Y-60104421D01*
X70494999Y-60563599D01*
X70494999Y-60563599D01*
G37*
X70494999Y-60563599D02*
X70533668Y-60758002D01*
X70643789Y-60922809D01*
X71755000Y-62034021D01*
X71755000Y-62388234D01*
X71671542Y-62422718D01*
X71313974Y-62779663D01*
X71120221Y-63246273D01*
X71120219Y-63248488D01*
X70927282Y-62781542D01*
X70570337Y-62423974D01*
X70485000Y-62388539D01*
X70485000Y-61899800D01*
X70436664Y-61656796D01*
X70358000Y-61539067D01*
X70358000Y-60241420D01*
X70494999Y-60104421D01*
X70494999Y-60563599D01*
G36*
X76930000Y-60655964D02*
X78384400Y-60655964D01*
X78384400Y-62021667D01*
X78305736Y-62139396D01*
X78257400Y-62382400D01*
X78284415Y-62518217D01*
X78190337Y-62423974D01*
X77723727Y-62230221D01*
X77218490Y-62229780D01*
X77133092Y-62265066D01*
X76809600Y-61941574D01*
X76809600Y-60689820D01*
X76857815Y-60641606D01*
X76930000Y-60655964D01*
X76930000Y-60655964D01*
G37*
X76930000Y-60655964D02*
X78384400Y-60655964D01*
X78384400Y-62021667D01*
X78305736Y-62139396D01*
X78257400Y-62382400D01*
X78284415Y-62518217D01*
X78190337Y-62423974D01*
X77723727Y-62230221D01*
X77218490Y-62229780D01*
X77133092Y-62265066D01*
X76809600Y-61941574D01*
X76809600Y-60689820D01*
X76857815Y-60641606D01*
X76930000Y-60655964D01*
G36*
X80362238Y-61109592D02*
X80412790Y-61185248D01*
X80533001Y-61305459D01*
X80533001Y-61991001D01*
X80551866Y-62085840D01*
X80543400Y-62128400D01*
X80590656Y-62365973D01*
X80263727Y-62230221D01*
X79758490Y-62229780D01*
X79673092Y-62265066D01*
X79400400Y-61992374D01*
X79400400Y-60147753D01*
X80362238Y-61109592D01*
X80362238Y-61109592D01*
G37*
X80362238Y-61109592D02*
X80412790Y-61185248D01*
X80533001Y-61305459D01*
X80533001Y-61991001D01*
X80551866Y-62085840D01*
X80543400Y-62128400D01*
X80590656Y-62365973D01*
X80263727Y-62230221D01*
X79758490Y-62229780D01*
X79673092Y-62265066D01*
X79400400Y-61992374D01*
X79400400Y-60147753D01*
X80362238Y-61109592D01*
G36*
X65044602Y-60867978D02*
X63986813Y-60867978D01*
X63893319Y-60849381D01*
X63893318Y-60849381D01*
X63088483Y-60849382D01*
X62894080Y-60888051D01*
X62842062Y-60922809D01*
X62729274Y-60998172D01*
X62513446Y-61214000D01*
X60825933Y-61214000D01*
X60631530Y-61252669D01*
X60608087Y-61268333D01*
X61192211Y-60684210D01*
X61302331Y-60519403D01*
X61341000Y-60325000D01*
X63881000Y-60325000D01*
X63929601Y-60315333D01*
X63970803Y-60287803D01*
X63998333Y-60246601D01*
X64008000Y-60198000D01*
X64008000Y-59944000D01*
X64166750Y-59944000D01*
X64262000Y-59848750D01*
X64262000Y-59563000D01*
X64389000Y-59563000D01*
X64516000Y-59537738D01*
X64516000Y-59848750D01*
X64611250Y-59944000D01*
X64972786Y-59944000D01*
X65112820Y-59885996D01*
X65219996Y-59778819D01*
X65278000Y-59638785D01*
X65278000Y-59309000D01*
X65786000Y-59309000D01*
X65834601Y-59299333D01*
X65875803Y-59271803D01*
X69648606Y-55499000D01*
X70413580Y-55499000D01*
X65044602Y-60867978D01*
X65044602Y-60867978D01*
G37*
X65044602Y-60867978D02*
X63986813Y-60867978D01*
X63893319Y-60849381D01*
X63893318Y-60849381D01*
X63088483Y-60849382D01*
X62894080Y-60888051D01*
X62842062Y-60922809D01*
X62729274Y-60998172D01*
X62513446Y-61214000D01*
X60825933Y-61214000D01*
X60631530Y-61252669D01*
X60608087Y-61268333D01*
X61192211Y-60684210D01*
X61302331Y-60519403D01*
X61341000Y-60325000D01*
X63881000Y-60325000D01*
X63929601Y-60315333D01*
X63970803Y-60287803D01*
X63998333Y-60246601D01*
X64008000Y-60198000D01*
X64008000Y-59944000D01*
X64166750Y-59944000D01*
X64262000Y-59848750D01*
X64262000Y-59563000D01*
X64389000Y-59563000D01*
X64516000Y-59537738D01*
X64516000Y-59848750D01*
X64611250Y-59944000D01*
X64972786Y-59944000D01*
X65112820Y-59885996D01*
X65219996Y-59778819D01*
X65278000Y-59638785D01*
X65278000Y-59309000D01*
X65786000Y-59309000D01*
X65834601Y-59299333D01*
X65875803Y-59271803D01*
X69648606Y-55499000D01*
X70413580Y-55499000D01*
X65044602Y-60867978D01*
G36*
X89128600Y-57130950D02*
X89223850Y-57226200D01*
X89890600Y-57226200D01*
X89890600Y-57206200D01*
X90144600Y-57206200D01*
X90144600Y-57226200D01*
X90164600Y-57226200D01*
X90164600Y-57480200D01*
X90144600Y-57480200D01*
X90144600Y-58146950D01*
X90176350Y-58178700D01*
X90144600Y-58210450D01*
X90144600Y-58877200D01*
X90164600Y-58877200D01*
X90164600Y-59131200D01*
X90144600Y-59131200D01*
X90144600Y-59151200D01*
X89890600Y-59151200D01*
X89890600Y-59131200D01*
X89223850Y-59131200D01*
X89128600Y-59226450D01*
X89128600Y-59587986D01*
X89186604Y-59728020D01*
X89293781Y-59835196D01*
X89433815Y-59893200D01*
X89472076Y-59893200D01*
X89360941Y-59915306D01*
X89234914Y-59999514D01*
X89150706Y-60125541D01*
X89146398Y-60147200D01*
X88265000Y-60147200D01*
X88265000Y-57575450D01*
X89128600Y-57575450D01*
X89128600Y-57936985D01*
X89186604Y-58077019D01*
X89288284Y-58178700D01*
X89186604Y-58280380D01*
X89128600Y-58420414D01*
X89128600Y-58781950D01*
X89223850Y-58877200D01*
X89890600Y-58877200D01*
X89890600Y-58210450D01*
X89858850Y-58178700D01*
X89890600Y-58146950D01*
X89890600Y-57480200D01*
X89223850Y-57480200D01*
X89128600Y-57575450D01*
X88265000Y-57575450D01*
X88265000Y-57378600D01*
X88216664Y-57135596D01*
X88079013Y-56929587D01*
X88045426Y-56896000D01*
X89128600Y-56896000D01*
X89128600Y-57130950D01*
X89128600Y-57130950D01*
G37*
X89128600Y-57130950D02*
X89223850Y-57226200D01*
X89890600Y-57226200D01*
X89890600Y-57206200D01*
X90144600Y-57206200D01*
X90144600Y-57226200D01*
X90164600Y-57226200D01*
X90164600Y-57480200D01*
X90144600Y-57480200D01*
X90144600Y-58146950D01*
X90176350Y-58178700D01*
X90144600Y-58210450D01*
X90144600Y-58877200D01*
X90164600Y-58877200D01*
X90164600Y-59131200D01*
X90144600Y-59131200D01*
X90144600Y-59151200D01*
X89890600Y-59151200D01*
X89890600Y-59131200D01*
X89223850Y-59131200D01*
X89128600Y-59226450D01*
X89128600Y-59587986D01*
X89186604Y-59728020D01*
X89293781Y-59835196D01*
X89433815Y-59893200D01*
X89472076Y-59893200D01*
X89360941Y-59915306D01*
X89234914Y-59999514D01*
X89150706Y-60125541D01*
X89146398Y-60147200D01*
X88265000Y-60147200D01*
X88265000Y-57575450D01*
X89128600Y-57575450D01*
X89128600Y-57936985D01*
X89186604Y-58077019D01*
X89288284Y-58178700D01*
X89186604Y-58280380D01*
X89128600Y-58420414D01*
X89128600Y-58781950D01*
X89223850Y-58877200D01*
X89890600Y-58877200D01*
X89890600Y-58210450D01*
X89858850Y-58178700D01*
X89890600Y-58146950D01*
X89890600Y-57480200D01*
X89223850Y-57480200D01*
X89128600Y-57575450D01*
X88265000Y-57575450D01*
X88265000Y-57378600D01*
X88216664Y-57135596D01*
X88079013Y-56929587D01*
X88045426Y-56896000D01*
X89128600Y-56896000D01*
X89128600Y-57130950D01*
M02*
