G04 #@! TF.GenerationSoftware,KiCad,Pcbnew,(2017-11-22 revision 78366f8f0)-master*
G04 #@! TF.CreationDate,2018-01-05T15:25:17+02:00*
G04 #@! TF.ProjectId,BB-ADS1262-Rev.A,42422D414453313236322D5265762E41,rev?*
G04 #@! TF.SameCoordinates,Original*
G04 #@! TF.FileFunction,Legend,Top*
G04 #@! TF.FilePolarity,Positive*
%FSLAX46Y46*%
G04 Gerber Fmt 4.6, Leading zero omitted, Abs format (unit mm)*
G04 Created by KiCad (PCBNEW (2017-11-22 revision 78366f8f0)-master) date Fri Jan  5 15:25:17 2018*
%MOMM*%
%LPD*%
G01*
G04 APERTURE LIST*
%ADD10C,0.150000*%
%ADD11C,0.254000*%
%ADD12C,0.200000*%
%ADD13C,0.010000*%
%ADD14C,0.062500*%
%ADD15C,0.012700*%
%ADD16C,0.127000*%
%ADD17C,0.203200*%
G04 APERTURE END LIST*
D10*
X84690000Y-51282523D02*
X84651904Y-51358714D01*
X84651904Y-51473000D01*
X84690000Y-51587285D01*
X84766190Y-51663476D01*
X84842380Y-51701571D01*
X84994761Y-51739666D01*
X85109047Y-51739666D01*
X85261428Y-51701571D01*
X85337619Y-51663476D01*
X85413809Y-51587285D01*
X85451904Y-51473000D01*
X85451904Y-51396809D01*
X85413809Y-51282523D01*
X85375714Y-51244428D01*
X85109047Y-51244428D01*
X85109047Y-51396809D01*
X85451904Y-50901571D02*
X84651904Y-50901571D01*
X85451904Y-50444428D01*
X84651904Y-50444428D01*
X85451904Y-50063476D02*
X84651904Y-50063476D01*
X84651904Y-49873000D01*
X84690000Y-49758714D01*
X84766190Y-49682523D01*
X84842380Y-49644428D01*
X84994761Y-49606333D01*
X85109047Y-49606333D01*
X85261428Y-49644428D01*
X85337619Y-49682523D01*
X85413809Y-49758714D01*
X85451904Y-49873000D01*
X85451904Y-50063476D01*
X106548095Y-53270476D02*
X106548095Y-53346666D01*
X106510000Y-53422857D01*
X106471904Y-53460952D01*
X106395714Y-53499047D01*
X106243333Y-53537142D01*
X106052857Y-53537142D01*
X105900476Y-53499047D01*
X105824285Y-53460952D01*
X105786190Y-53422857D01*
X105748095Y-53346666D01*
X105748095Y-53270476D01*
X105786190Y-53194285D01*
X105824285Y-53156190D01*
X105900476Y-53118095D01*
X106052857Y-53080000D01*
X106243333Y-53080000D01*
X106395714Y-53118095D01*
X106471904Y-53156190D01*
X106510000Y-53194285D01*
X106548095Y-53270476D01*
X105786190Y-53918095D02*
X105748095Y-53918095D01*
X105671904Y-53880000D01*
X105633809Y-53841904D01*
X106548095Y-54184761D02*
X106548095Y-54718095D01*
X105748095Y-54375238D01*
X106548095Y-55175238D02*
X106548095Y-55251428D01*
X106510000Y-55327619D01*
X106471904Y-55365714D01*
X106395714Y-55403809D01*
X106243333Y-55441904D01*
X106052857Y-55441904D01*
X105900476Y-55403809D01*
X105824285Y-55365714D01*
X105786190Y-55327619D01*
X105748095Y-55251428D01*
X105748095Y-55175238D01*
X105786190Y-55099047D01*
X105824285Y-55060952D01*
X105900476Y-55022857D01*
X106052857Y-54984761D01*
X106243333Y-54984761D01*
X106395714Y-55022857D01*
X106471904Y-55060952D01*
X106510000Y-55099047D01*
X106548095Y-55175238D01*
X106548095Y-55937142D02*
X106548095Y-56013333D01*
X106510000Y-56089523D01*
X106471904Y-56127619D01*
X106395714Y-56165714D01*
X106243333Y-56203809D01*
X106052857Y-56203809D01*
X105900476Y-56165714D01*
X105824285Y-56127619D01*
X105786190Y-56089523D01*
X105748095Y-56013333D01*
X105748095Y-55937142D01*
X105786190Y-55860952D01*
X105824285Y-55822857D01*
X105900476Y-55784761D01*
X106052857Y-55746666D01*
X106243333Y-55746666D01*
X106395714Y-55784761D01*
X106471904Y-55822857D01*
X106510000Y-55860952D01*
X106548095Y-55937142D01*
X106548095Y-56699047D02*
X106548095Y-56775238D01*
X106510000Y-56851428D01*
X106471904Y-56889523D01*
X106395714Y-56927619D01*
X106243333Y-56965714D01*
X106052857Y-56965714D01*
X105900476Y-56927619D01*
X105824285Y-56889523D01*
X105786190Y-56851428D01*
X105748095Y-56775238D01*
X105748095Y-56699047D01*
X105786190Y-56622857D01*
X105824285Y-56584761D01*
X105900476Y-56546666D01*
X106052857Y-56508571D01*
X106243333Y-56508571D01*
X106395714Y-56546666D01*
X106471904Y-56584761D01*
X106510000Y-56622857D01*
X106548095Y-56699047D01*
X105748095Y-57918095D02*
X106281428Y-57918095D01*
X106548095Y-57918095D02*
X106510000Y-57880000D01*
X106471904Y-57918095D01*
X106510000Y-57956190D01*
X106548095Y-57918095D01*
X106471904Y-57918095D01*
X106281428Y-58299047D02*
X105748095Y-58299047D01*
X106205238Y-58299047D02*
X106243333Y-58337142D01*
X106281428Y-58413333D01*
X106281428Y-58527619D01*
X106243333Y-58603809D01*
X106167142Y-58641904D01*
X105748095Y-58641904D01*
X105410000Y-46990000D02*
X105410000Y-64770000D01*
X101600000Y-46990000D02*
X106810000Y-46990000D01*
X101600000Y-64770000D02*
X106810000Y-64770000D01*
X105410000Y-64770000D02*
X104823579Y-63643496D01*
X105410000Y-64770000D02*
X105996421Y-63643496D01*
X105410000Y-46990000D02*
X104823579Y-48116504D01*
X105410000Y-46990000D02*
X105996421Y-48116504D01*
X75762142Y-43476904D02*
X75305000Y-43476904D01*
X75533571Y-43476904D02*
X75533571Y-42676904D01*
X75457380Y-42791190D01*
X75381190Y-42867380D01*
X75305000Y-42905476D01*
X76143095Y-43438809D02*
X76143095Y-43476904D01*
X76105000Y-43553095D01*
X76066904Y-43591190D01*
X76600238Y-43019761D02*
X76524047Y-42981666D01*
X76485952Y-42943571D01*
X76447857Y-42867380D01*
X76447857Y-42829285D01*
X76485952Y-42753095D01*
X76524047Y-42715000D01*
X76600238Y-42676904D01*
X76752619Y-42676904D01*
X76828809Y-42715000D01*
X76866904Y-42753095D01*
X76905000Y-42829285D01*
X76905000Y-42867380D01*
X76866904Y-42943571D01*
X76828809Y-42981666D01*
X76752619Y-43019761D01*
X76600238Y-43019761D01*
X76524047Y-43057857D01*
X76485952Y-43095952D01*
X76447857Y-43172142D01*
X76447857Y-43324523D01*
X76485952Y-43400714D01*
X76524047Y-43438809D01*
X76600238Y-43476904D01*
X76752619Y-43476904D01*
X76828809Y-43438809D01*
X76866904Y-43400714D01*
X76905000Y-43324523D01*
X76905000Y-43172142D01*
X76866904Y-43095952D01*
X76828809Y-43057857D01*
X76752619Y-43019761D01*
X77628809Y-42676904D02*
X77247857Y-42676904D01*
X77209761Y-43057857D01*
X77247857Y-43019761D01*
X77324047Y-42981666D01*
X77514523Y-42981666D01*
X77590714Y-43019761D01*
X77628809Y-43057857D01*
X77666904Y-43134047D01*
X77666904Y-43324523D01*
X77628809Y-43400714D01*
X77590714Y-43438809D01*
X77514523Y-43476904D01*
X77324047Y-43476904D01*
X77247857Y-43438809D01*
X77209761Y-43400714D01*
X78162142Y-42676904D02*
X78238333Y-42676904D01*
X78314523Y-42715000D01*
X78352619Y-42753095D01*
X78390714Y-42829285D01*
X78428809Y-42981666D01*
X78428809Y-43172142D01*
X78390714Y-43324523D01*
X78352619Y-43400714D01*
X78314523Y-43438809D01*
X78238333Y-43476904D01*
X78162142Y-43476904D01*
X78085952Y-43438809D01*
X78047857Y-43400714D01*
X78009761Y-43324523D01*
X77971666Y-43172142D01*
X77971666Y-42981666D01*
X78009761Y-42829285D01*
X78047857Y-42753095D01*
X78085952Y-42715000D01*
X78162142Y-42676904D01*
X78924047Y-42676904D02*
X79000238Y-42676904D01*
X79076428Y-42715000D01*
X79114523Y-42753095D01*
X79152619Y-42829285D01*
X79190714Y-42981666D01*
X79190714Y-43172142D01*
X79152619Y-43324523D01*
X79114523Y-43400714D01*
X79076428Y-43438809D01*
X79000238Y-43476904D01*
X78924047Y-43476904D01*
X78847857Y-43438809D01*
X78809761Y-43400714D01*
X78771666Y-43324523D01*
X78733571Y-43172142D01*
X78733571Y-42981666D01*
X78771666Y-42829285D01*
X78809761Y-42753095D01*
X78847857Y-42715000D01*
X78924047Y-42676904D01*
X80143095Y-43476904D02*
X80143095Y-42943571D01*
X80143095Y-42676904D02*
X80105000Y-42715000D01*
X80143095Y-42753095D01*
X80181190Y-42715000D01*
X80143095Y-42676904D01*
X80143095Y-42753095D01*
X80524047Y-42943571D02*
X80524047Y-43476904D01*
X80524047Y-43019761D02*
X80562142Y-42981666D01*
X80638333Y-42943571D01*
X80752619Y-42943571D01*
X80828809Y-42981666D01*
X80866904Y-43057857D01*
X80866904Y-43476904D01*
X54610000Y-43815000D02*
X101600000Y-43815000D01*
X54610000Y-46990000D02*
X54610000Y-42415000D01*
X101600000Y-46990000D02*
X101600000Y-42415000D01*
X101600000Y-43815000D02*
X100473496Y-44401421D01*
X101600000Y-43815000D02*
X100473496Y-43228579D01*
X54610000Y-43815000D02*
X55736504Y-44401421D01*
X54610000Y-43815000D02*
X55736504Y-43228579D01*
X59416904Y-49047428D02*
X59416904Y-49504571D01*
X59416904Y-49276000D02*
X58616904Y-49276000D01*
X58731190Y-49352190D01*
X58807380Y-49428380D01*
X58845476Y-49504571D01*
X60808190Y-60432904D02*
X60808190Y-59899571D01*
X60808190Y-60051952D02*
X60846285Y-59975761D01*
X60884380Y-59937666D01*
X60960571Y-59899571D01*
X61036761Y-59899571D01*
X61608190Y-60394809D02*
X61532000Y-60432904D01*
X61379619Y-60432904D01*
X61303428Y-60394809D01*
X61265333Y-60318619D01*
X61265333Y-60013857D01*
X61303428Y-59937666D01*
X61379619Y-59899571D01*
X61532000Y-59899571D01*
X61608190Y-59937666D01*
X61646285Y-60013857D01*
X61646285Y-60090047D01*
X61265333Y-60166238D01*
X61912952Y-59899571D02*
X62103428Y-60432904D01*
X62293904Y-59899571D01*
X62598666Y-60356714D02*
X62636761Y-60394809D01*
X62598666Y-60432904D01*
X62560571Y-60394809D01*
X62598666Y-60356714D01*
X62598666Y-60432904D01*
X63322476Y-60432904D02*
X63322476Y-60013857D01*
X63284380Y-59937666D01*
X63208190Y-59899571D01*
X63055809Y-59899571D01*
X62979619Y-59937666D01*
X63322476Y-60394809D02*
X63246285Y-60432904D01*
X63055809Y-60432904D01*
X62979619Y-60394809D01*
X62941523Y-60318619D01*
X62941523Y-60242428D01*
X62979619Y-60166238D01*
X63055809Y-60128142D01*
X63246285Y-60128142D01*
X63322476Y-60090047D01*
X64922476Y-59899571D02*
X64312952Y-60128142D01*
X64922476Y-60356714D01*
X65646285Y-60394809D02*
X65570095Y-60432904D01*
X65417714Y-60432904D01*
X65341523Y-60394809D01*
X65303428Y-60356714D01*
X65265333Y-60280523D01*
X65265333Y-60051952D01*
X65303428Y-59975761D01*
X65341523Y-59937666D01*
X65417714Y-59899571D01*
X65570095Y-59899571D01*
X65646285Y-59937666D01*
X65989142Y-59899571D02*
X66598666Y-60128142D01*
X65989142Y-60356714D01*
X67551047Y-59709095D02*
X67589142Y-59671000D01*
X67665333Y-59632904D01*
X67855809Y-59632904D01*
X67932000Y-59671000D01*
X67970095Y-59709095D01*
X68008190Y-59785285D01*
X68008190Y-59861476D01*
X67970095Y-59975761D01*
X67512952Y-60432904D01*
X68008190Y-60432904D01*
X68503428Y-59632904D02*
X68579619Y-59632904D01*
X68655809Y-59671000D01*
X68693904Y-59709095D01*
X68732000Y-59785285D01*
X68770095Y-59937666D01*
X68770095Y-60128142D01*
X68732000Y-60280523D01*
X68693904Y-60356714D01*
X68655809Y-60394809D01*
X68579619Y-60432904D01*
X68503428Y-60432904D01*
X68427238Y-60394809D01*
X68389142Y-60356714D01*
X68351047Y-60280523D01*
X68312952Y-60128142D01*
X68312952Y-59937666D01*
X68351047Y-59785285D01*
X68389142Y-59709095D01*
X68427238Y-59671000D01*
X68503428Y-59632904D01*
X69532000Y-60432904D02*
X69074857Y-60432904D01*
X69303428Y-60432904D02*
X69303428Y-59632904D01*
X69227238Y-59747190D01*
X69151047Y-59823380D01*
X69074857Y-59861476D01*
X69989142Y-59975761D02*
X69912952Y-59937666D01*
X69874857Y-59899571D01*
X69836761Y-59823380D01*
X69836761Y-59785285D01*
X69874857Y-59709095D01*
X69912952Y-59671000D01*
X69989142Y-59632904D01*
X70141523Y-59632904D01*
X70217714Y-59671000D01*
X70255809Y-59709095D01*
X70293904Y-59785285D01*
X70293904Y-59823380D01*
X70255809Y-59899571D01*
X70217714Y-59937666D01*
X70141523Y-59975761D01*
X69989142Y-59975761D01*
X69912952Y-60013857D01*
X69874857Y-60051952D01*
X69836761Y-60128142D01*
X69836761Y-60280523D01*
X69874857Y-60356714D01*
X69912952Y-60394809D01*
X69989142Y-60432904D01*
X70141523Y-60432904D01*
X70217714Y-60394809D01*
X70255809Y-60356714D01*
X70293904Y-60280523D01*
X70293904Y-60128142D01*
X70255809Y-60051952D01*
X70217714Y-60013857D01*
X70141523Y-59975761D01*
X70751857Y-50399904D02*
X70751857Y-49599904D01*
X71018523Y-50171333D01*
X71285190Y-49599904D01*
X71285190Y-50399904D01*
X71666142Y-50399904D02*
X71666142Y-49599904D01*
X72009000Y-50361809D02*
X72123285Y-50399904D01*
X72313761Y-50399904D01*
X72389952Y-50361809D01*
X72428047Y-50323714D01*
X72466142Y-50247523D01*
X72466142Y-50171333D01*
X72428047Y-50095142D01*
X72389952Y-50057047D01*
X72313761Y-50018952D01*
X72161380Y-49980857D01*
X72085190Y-49942761D01*
X72047095Y-49904666D01*
X72009000Y-49828476D01*
X72009000Y-49752285D01*
X72047095Y-49676095D01*
X72085190Y-49638000D01*
X72161380Y-49599904D01*
X72351857Y-49599904D01*
X72466142Y-49638000D01*
X72961380Y-49599904D02*
X73113761Y-49599904D01*
X73189952Y-49638000D01*
X73266142Y-49714190D01*
X73304238Y-49866571D01*
X73304238Y-50133238D01*
X73266142Y-50285619D01*
X73189952Y-50361809D01*
X73113761Y-50399904D01*
X72961380Y-50399904D01*
X72885190Y-50361809D01*
X72809000Y-50285619D01*
X72770904Y-50133238D01*
X72770904Y-49866571D01*
X72809000Y-49714190D01*
X72885190Y-49638000D01*
X72961380Y-49599904D01*
X61174857Y-58602571D02*
X61317714Y-58650190D01*
X61365333Y-58697809D01*
X61412952Y-58793047D01*
X61412952Y-58935904D01*
X61365333Y-59031142D01*
X61317714Y-59078761D01*
X61222476Y-59126380D01*
X60841523Y-59126380D01*
X60841523Y-58126380D01*
X61174857Y-58126380D01*
X61270095Y-58174000D01*
X61317714Y-58221619D01*
X61365333Y-58316857D01*
X61365333Y-58412095D01*
X61317714Y-58507333D01*
X61270095Y-58554952D01*
X61174857Y-58602571D01*
X60841523Y-58602571D01*
X62174857Y-58602571D02*
X62317714Y-58650190D01*
X62365333Y-58697809D01*
X62412952Y-58793047D01*
X62412952Y-58935904D01*
X62365333Y-59031142D01*
X62317714Y-59078761D01*
X62222476Y-59126380D01*
X61841523Y-59126380D01*
X61841523Y-58126380D01*
X62174857Y-58126380D01*
X62270095Y-58174000D01*
X62317714Y-58221619D01*
X62365333Y-58316857D01*
X62365333Y-58412095D01*
X62317714Y-58507333D01*
X62270095Y-58554952D01*
X62174857Y-58602571D01*
X61841523Y-58602571D01*
X62841523Y-58745428D02*
X63603428Y-58745428D01*
X64031999Y-58840666D02*
X64508190Y-58840666D01*
X63936761Y-59126380D02*
X64270095Y-58126380D01*
X64603428Y-59126380D01*
X64936761Y-59126380D02*
X64936761Y-58126380D01*
X65174857Y-58126380D01*
X65317714Y-58174000D01*
X65412952Y-58269238D01*
X65460571Y-58364476D01*
X65508190Y-58554952D01*
X65508190Y-58697809D01*
X65460571Y-58888285D01*
X65412952Y-58983523D01*
X65317714Y-59078761D01*
X65174857Y-59126380D01*
X64936761Y-59126380D01*
X65889142Y-59078761D02*
X66031999Y-59126380D01*
X66270095Y-59126380D01*
X66365333Y-59078761D01*
X66412952Y-59031142D01*
X66460571Y-58935904D01*
X66460571Y-58840666D01*
X66412952Y-58745428D01*
X66365333Y-58697809D01*
X66270095Y-58650190D01*
X66079619Y-58602571D01*
X65984380Y-58554952D01*
X65936761Y-58507333D01*
X65889142Y-58412095D01*
X65889142Y-58316857D01*
X65936761Y-58221619D01*
X65984380Y-58174000D01*
X66079619Y-58126380D01*
X66317714Y-58126380D01*
X66460571Y-58174000D01*
X67412952Y-59126380D02*
X66841523Y-59126380D01*
X67127238Y-59126380D02*
X67127238Y-58126380D01*
X67031999Y-58269238D01*
X66936761Y-58364476D01*
X66841523Y-58412095D01*
X67793904Y-58221619D02*
X67841523Y-58174000D01*
X67936761Y-58126380D01*
X68174857Y-58126380D01*
X68270095Y-58174000D01*
X68317714Y-58221619D01*
X68365333Y-58316857D01*
X68365333Y-58412095D01*
X68317714Y-58554952D01*
X67746285Y-59126380D01*
X68365333Y-59126380D01*
X69222476Y-58126380D02*
X69032000Y-58126380D01*
X68936761Y-58174000D01*
X68889142Y-58221619D01*
X68793904Y-58364476D01*
X68746285Y-58554952D01*
X68746285Y-58935904D01*
X68793904Y-59031142D01*
X68841523Y-59078761D01*
X68936761Y-59126380D01*
X69127238Y-59126380D01*
X69222476Y-59078761D01*
X69270095Y-59031142D01*
X69317714Y-58935904D01*
X69317714Y-58697809D01*
X69270095Y-58602571D01*
X69222476Y-58554952D01*
X69127238Y-58507333D01*
X68936761Y-58507333D01*
X68841523Y-58554952D01*
X68793904Y-58602571D01*
X68746285Y-58697809D01*
X69698666Y-58221619D02*
X69746285Y-58174000D01*
X69841523Y-58126380D01*
X70079619Y-58126380D01*
X70174857Y-58174000D01*
X70222476Y-58221619D01*
X70270095Y-58316857D01*
X70270095Y-58412095D01*
X70222476Y-58554952D01*
X69651047Y-59126380D01*
X70270095Y-59126380D01*
X83000809Y-52761952D02*
X83038904Y-52647666D01*
X83038904Y-52457190D01*
X83000809Y-52381000D01*
X82962714Y-52342904D01*
X82886523Y-52304809D01*
X82810333Y-52304809D01*
X82734142Y-52342904D01*
X82696047Y-52381000D01*
X82657952Y-52457190D01*
X82619857Y-52609571D01*
X82581761Y-52685761D01*
X82543666Y-52723857D01*
X82467476Y-52761952D01*
X82391285Y-52761952D01*
X82315095Y-52723857D01*
X82277000Y-52685761D01*
X82238904Y-52609571D01*
X82238904Y-52419095D01*
X82277000Y-52304809D01*
X82238904Y-52076238D02*
X82238904Y-51619095D01*
X83038904Y-51847666D02*
X82238904Y-51847666D01*
X82810333Y-51390523D02*
X82810333Y-51009571D01*
X83038904Y-51466714D02*
X82238904Y-51200047D01*
X83038904Y-50933380D01*
X83038904Y-50209571D02*
X82657952Y-50476238D01*
X83038904Y-50666714D02*
X82238904Y-50666714D01*
X82238904Y-50361952D01*
X82277000Y-50285761D01*
X82315095Y-50247666D01*
X82391285Y-50209571D01*
X82505571Y-50209571D01*
X82581761Y-50247666D01*
X82619857Y-50285761D01*
X82657952Y-50361952D01*
X82657952Y-50666714D01*
X82238904Y-49981000D02*
X82238904Y-49523857D01*
X83038904Y-49752428D02*
X82238904Y-49752428D01*
X80295714Y-50298333D02*
X80333809Y-50336428D01*
X80371904Y-50450714D01*
X80371904Y-50526904D01*
X80333809Y-50641190D01*
X80257619Y-50717380D01*
X80181428Y-50755476D01*
X80029047Y-50793571D01*
X79914761Y-50793571D01*
X79762380Y-50755476D01*
X79686190Y-50717380D01*
X79610000Y-50641190D01*
X79571904Y-50526904D01*
X79571904Y-50450714D01*
X79610000Y-50336428D01*
X79648095Y-50298333D01*
X80333809Y-49993571D02*
X80371904Y-49879285D01*
X80371904Y-49688809D01*
X80333809Y-49612619D01*
X80295714Y-49574523D01*
X80219523Y-49536428D01*
X80143333Y-49536428D01*
X80067142Y-49574523D01*
X80029047Y-49612619D01*
X79990952Y-49688809D01*
X79952857Y-49841190D01*
X79914761Y-49917380D01*
X79876666Y-49955476D01*
X79800476Y-49993571D01*
X79724285Y-49993571D01*
X79648095Y-49955476D01*
X79610000Y-49917380D01*
X79571904Y-49841190D01*
X79571904Y-49650714D01*
X79610000Y-49536428D01*
X77882714Y-50317380D02*
X77920809Y-50355476D01*
X77958904Y-50469761D01*
X77958904Y-50545952D01*
X77920809Y-50660238D01*
X77844619Y-50736428D01*
X77768428Y-50774523D01*
X77616047Y-50812619D01*
X77501761Y-50812619D01*
X77349380Y-50774523D01*
X77273190Y-50736428D01*
X77197000Y-50660238D01*
X77158904Y-50545952D01*
X77158904Y-50469761D01*
X77197000Y-50355476D01*
X77235095Y-50317380D01*
X77958904Y-49974523D02*
X77158904Y-49974523D01*
X77958904Y-49517380D02*
X77501761Y-49860238D01*
X77158904Y-49517380D02*
X77616047Y-49974523D01*
X74053857Y-50399904D02*
X74053857Y-49599904D01*
X74320523Y-50171333D01*
X74587190Y-49599904D01*
X74587190Y-50399904D01*
X75120523Y-49599904D02*
X75272904Y-49599904D01*
X75349095Y-49638000D01*
X75425285Y-49714190D01*
X75463380Y-49866571D01*
X75463380Y-50133238D01*
X75425285Y-50285619D01*
X75349095Y-50361809D01*
X75272904Y-50399904D01*
X75120523Y-50399904D01*
X75044333Y-50361809D01*
X74968142Y-50285619D01*
X74930047Y-50133238D01*
X74930047Y-49866571D01*
X74968142Y-49714190D01*
X75044333Y-49638000D01*
X75120523Y-49599904D01*
X75768142Y-50361809D02*
X75882428Y-50399904D01*
X76072904Y-50399904D01*
X76149095Y-50361809D01*
X76187190Y-50323714D01*
X76225285Y-50247523D01*
X76225285Y-50171333D01*
X76187190Y-50095142D01*
X76149095Y-50057047D01*
X76072904Y-50018952D01*
X75920523Y-49980857D01*
X75844333Y-49942761D01*
X75806238Y-49904666D01*
X75768142Y-49828476D01*
X75768142Y-49752285D01*
X75806238Y-49676095D01*
X75844333Y-49638000D01*
X75920523Y-49599904D01*
X76111000Y-49599904D01*
X76225285Y-49638000D01*
X76568142Y-50399904D02*
X76568142Y-49599904D01*
X70211904Y-51041238D02*
X69830952Y-51307904D01*
X70211904Y-51498380D02*
X69411904Y-51498380D01*
X69411904Y-51193619D01*
X69450000Y-51117428D01*
X69488095Y-51079333D01*
X69564285Y-51041238D01*
X69678571Y-51041238D01*
X69754761Y-51079333D01*
X69792857Y-51117428D01*
X69830952Y-51193619D01*
X69830952Y-51498380D01*
X70211904Y-50698380D02*
X69411904Y-50698380D01*
X69411904Y-50507904D01*
X69450000Y-50393619D01*
X69526190Y-50317428D01*
X69602380Y-50279333D01*
X69754761Y-50241238D01*
X69869047Y-50241238D01*
X70021428Y-50279333D01*
X70097619Y-50317428D01*
X70173809Y-50393619D01*
X70211904Y-50507904D01*
X70211904Y-50698380D01*
X69830952Y-49746000D02*
X70211904Y-49746000D01*
X69411904Y-50012666D02*
X69830952Y-49746000D01*
X69411904Y-49479333D01*
X67671904Y-51574571D02*
X66871904Y-51574571D01*
X66871904Y-51269809D01*
X66910000Y-51193619D01*
X66948095Y-51155523D01*
X67024285Y-51117428D01*
X67138571Y-51117428D01*
X67214761Y-51155523D01*
X67252857Y-51193619D01*
X67290952Y-51269809D01*
X67290952Y-51574571D01*
X67671904Y-50774571D02*
X66871904Y-50774571D01*
X66871904Y-50584095D01*
X66910000Y-50469809D01*
X66986190Y-50393619D01*
X67062380Y-50355523D01*
X67214761Y-50317428D01*
X67329047Y-50317428D01*
X67481428Y-50355523D01*
X67557619Y-50393619D01*
X67633809Y-50469809D01*
X67671904Y-50584095D01*
X67671904Y-50774571D01*
X67671904Y-49974571D02*
X66871904Y-49974571D01*
X67671904Y-49517428D01*
X66871904Y-49517428D01*
X64370000Y-51155523D02*
X64331904Y-51231714D01*
X64331904Y-51346000D01*
X64370000Y-51460285D01*
X64446190Y-51536476D01*
X64522380Y-51574571D01*
X64674761Y-51612666D01*
X64789047Y-51612666D01*
X64941428Y-51574571D01*
X65017619Y-51536476D01*
X65093809Y-51460285D01*
X65131904Y-51346000D01*
X65131904Y-51269809D01*
X65093809Y-51155523D01*
X65055714Y-51117428D01*
X64789047Y-51117428D01*
X64789047Y-51269809D01*
X65131904Y-50774571D02*
X64331904Y-50774571D01*
X65131904Y-50317428D01*
X64331904Y-50317428D01*
X65131904Y-49936476D02*
X64331904Y-49936476D01*
X64331904Y-49746000D01*
X64370000Y-49631714D01*
X64446190Y-49555523D01*
X64522380Y-49517428D01*
X64674761Y-49479333D01*
X64789047Y-49479333D01*
X64941428Y-49517428D01*
X65017619Y-49555523D01*
X65093809Y-49631714D01*
X65131904Y-49746000D01*
X65131904Y-49936476D01*
X60249000Y-50603142D02*
X60858523Y-50603142D01*
X60553761Y-50907904D02*
X60553761Y-50298380D01*
X61163285Y-50107904D02*
X61658523Y-50107904D01*
X61391857Y-50412666D01*
X61506142Y-50412666D01*
X61582333Y-50450761D01*
X61620428Y-50488857D01*
X61658523Y-50565047D01*
X61658523Y-50755523D01*
X61620428Y-50831714D01*
X61582333Y-50869809D01*
X61506142Y-50907904D01*
X61277571Y-50907904D01*
X61201380Y-50869809D01*
X61163285Y-50831714D01*
X62001380Y-50831714D02*
X62039476Y-50869809D01*
X62001380Y-50907904D01*
X61963285Y-50869809D01*
X62001380Y-50831714D01*
X62001380Y-50907904D01*
X62306142Y-50107904D02*
X62801380Y-50107904D01*
X62534714Y-50412666D01*
X62649000Y-50412666D01*
X62725190Y-50450761D01*
X62763285Y-50488857D01*
X62801380Y-50565047D01*
X62801380Y-50755523D01*
X62763285Y-50831714D01*
X62725190Y-50869809D01*
X62649000Y-50907904D01*
X62420428Y-50907904D01*
X62344238Y-50869809D01*
X62306142Y-50831714D01*
X63029952Y-50107904D02*
X63296619Y-50907904D01*
X63563285Y-50107904D01*
X87636342Y-62026628D02*
X87636342Y-61417104D01*
X87941104Y-61721866D02*
X87331580Y-61721866D01*
X87141104Y-60655200D02*
X87141104Y-61036152D01*
X87522057Y-61074247D01*
X87483961Y-61036152D01*
X87445866Y-60959961D01*
X87445866Y-60769485D01*
X87483961Y-60693295D01*
X87522057Y-60655200D01*
X87598247Y-60617104D01*
X87788723Y-60617104D01*
X87864914Y-60655200D01*
X87903009Y-60693295D01*
X87941104Y-60769485D01*
X87941104Y-60959961D01*
X87903009Y-61036152D01*
X87864914Y-61074247D01*
X87141104Y-60388533D02*
X87941104Y-60121866D01*
X87141104Y-59855200D01*
X87712533Y-59626628D02*
X87712533Y-59245676D01*
X87941104Y-59702819D02*
X87141104Y-59436152D01*
X87941104Y-59169485D01*
X84690000Y-61658380D02*
X84651904Y-61734571D01*
X84651904Y-61848857D01*
X84690000Y-61963142D01*
X84766190Y-62039333D01*
X84842380Y-62077428D01*
X84994761Y-62115523D01*
X85109047Y-62115523D01*
X85261428Y-62077428D01*
X85337619Y-62039333D01*
X85413809Y-61963142D01*
X85451904Y-61848857D01*
X85451904Y-61772666D01*
X85413809Y-61658380D01*
X85375714Y-61620285D01*
X85109047Y-61620285D01*
X85109047Y-61772666D01*
X85451904Y-61277428D02*
X84651904Y-61277428D01*
X85451904Y-60820285D01*
X84651904Y-60820285D01*
X85451904Y-60439333D02*
X84651904Y-60439333D01*
X84651904Y-60248857D01*
X84690000Y-60134571D01*
X84766190Y-60058380D01*
X84842380Y-60020285D01*
X84994761Y-59982190D01*
X85109047Y-59982190D01*
X85261428Y-60020285D01*
X85337619Y-60058380D01*
X85413809Y-60134571D01*
X85451904Y-60248857D01*
X85451904Y-60439333D01*
X85223333Y-59677428D02*
X85223333Y-59296476D01*
X85451904Y-59753619D02*
X84651904Y-59486952D01*
X85451904Y-59220285D01*
X82810333Y-62172666D02*
X82810333Y-61791714D01*
X83038904Y-62248857D02*
X82238904Y-61982190D01*
X83038904Y-61715523D01*
X82962714Y-60991714D02*
X83000809Y-61029809D01*
X83038904Y-61144095D01*
X83038904Y-61220285D01*
X83000809Y-61334571D01*
X82924619Y-61410761D01*
X82848428Y-61448857D01*
X82696047Y-61486952D01*
X82581761Y-61486952D01*
X82429380Y-61448857D01*
X82353190Y-61410761D01*
X82277000Y-61334571D01*
X82238904Y-61220285D01*
X82238904Y-61144095D01*
X82277000Y-61029809D01*
X82315095Y-60991714D01*
X83038904Y-60648857D02*
X82238904Y-60648857D01*
X82810333Y-60382190D01*
X82238904Y-60115523D01*
X83038904Y-60115523D01*
X83038904Y-59734571D02*
X82238904Y-59734571D01*
X83038904Y-59277428D01*
X82238904Y-59277428D01*
X79438571Y-61728333D02*
X79819523Y-61728333D01*
X79362380Y-61956904D02*
X79629047Y-61156904D01*
X79895714Y-61956904D01*
X80200476Y-61956904D02*
X80352857Y-61956904D01*
X80429047Y-61918809D01*
X80467142Y-61880714D01*
X80543333Y-61766428D01*
X80581428Y-61614047D01*
X80581428Y-61309285D01*
X80543333Y-61233095D01*
X80505238Y-61195000D01*
X80429047Y-61156904D01*
X80276666Y-61156904D01*
X80200476Y-61195000D01*
X80162380Y-61233095D01*
X80124285Y-61309285D01*
X80124285Y-61499761D01*
X80162380Y-61575952D01*
X80200476Y-61614047D01*
X80276666Y-61652142D01*
X80429047Y-61652142D01*
X80505238Y-61614047D01*
X80543333Y-61575952D01*
X80581428Y-61499761D01*
X76898571Y-61728333D02*
X77279523Y-61728333D01*
X76822380Y-61956904D02*
X77089047Y-61156904D01*
X77355714Y-61956904D01*
X77736666Y-61499761D02*
X77660476Y-61461666D01*
X77622380Y-61423571D01*
X77584285Y-61347380D01*
X77584285Y-61309285D01*
X77622380Y-61233095D01*
X77660476Y-61195000D01*
X77736666Y-61156904D01*
X77889047Y-61156904D01*
X77965238Y-61195000D01*
X78003333Y-61233095D01*
X78041428Y-61309285D01*
X78041428Y-61347380D01*
X78003333Y-61423571D01*
X77965238Y-61461666D01*
X77889047Y-61499761D01*
X77736666Y-61499761D01*
X77660476Y-61537857D01*
X77622380Y-61575952D01*
X77584285Y-61652142D01*
X77584285Y-61804523D01*
X77622380Y-61880714D01*
X77660476Y-61918809D01*
X77736666Y-61956904D01*
X77889047Y-61956904D01*
X77965238Y-61918809D01*
X78003333Y-61880714D01*
X78041428Y-61804523D01*
X78041428Y-61652142D01*
X78003333Y-61575952D01*
X77965238Y-61537857D01*
X77889047Y-61499761D01*
X74358571Y-61728333D02*
X74739523Y-61728333D01*
X74282380Y-61956904D02*
X74549047Y-61156904D01*
X74815714Y-61956904D01*
X75006190Y-61156904D02*
X75539523Y-61156904D01*
X75196666Y-61956904D01*
X71818571Y-61728333D02*
X72199523Y-61728333D01*
X71742380Y-61956904D02*
X72009047Y-61156904D01*
X72275714Y-61956904D01*
X72885238Y-61156904D02*
X72732857Y-61156904D01*
X72656666Y-61195000D01*
X72618571Y-61233095D01*
X72542380Y-61347380D01*
X72504285Y-61499761D01*
X72504285Y-61804523D01*
X72542380Y-61880714D01*
X72580476Y-61918809D01*
X72656666Y-61956904D01*
X72809047Y-61956904D01*
X72885238Y-61918809D01*
X72923333Y-61880714D01*
X72961428Y-61804523D01*
X72961428Y-61614047D01*
X72923333Y-61537857D01*
X72885238Y-61499761D01*
X72809047Y-61461666D01*
X72656666Y-61461666D01*
X72580476Y-61499761D01*
X72542380Y-61537857D01*
X72504285Y-61614047D01*
X69278571Y-61728333D02*
X69659523Y-61728333D01*
X69202380Y-61956904D02*
X69469047Y-61156904D01*
X69735714Y-61956904D01*
X70383333Y-61156904D02*
X70002380Y-61156904D01*
X69964285Y-61537857D01*
X70002380Y-61499761D01*
X70078571Y-61461666D01*
X70269047Y-61461666D01*
X70345238Y-61499761D01*
X70383333Y-61537857D01*
X70421428Y-61614047D01*
X70421428Y-61804523D01*
X70383333Y-61880714D01*
X70345238Y-61918809D01*
X70269047Y-61956904D01*
X70078571Y-61956904D01*
X70002380Y-61918809D01*
X69964285Y-61880714D01*
X66738571Y-61728333D02*
X67119523Y-61728333D01*
X66662380Y-61956904D02*
X66929047Y-61156904D01*
X67195714Y-61956904D01*
X67805238Y-61423571D02*
X67805238Y-61956904D01*
X67614761Y-61118809D02*
X67424285Y-61690238D01*
X67919523Y-61690238D01*
X64198571Y-61728333D02*
X64579523Y-61728333D01*
X64122380Y-61956904D02*
X64389047Y-61156904D01*
X64655714Y-61956904D01*
X64846190Y-61156904D02*
X65341428Y-61156904D01*
X65074761Y-61461666D01*
X65189047Y-61461666D01*
X65265238Y-61499761D01*
X65303333Y-61537857D01*
X65341428Y-61614047D01*
X65341428Y-61804523D01*
X65303333Y-61880714D01*
X65265238Y-61918809D01*
X65189047Y-61956904D01*
X64960476Y-61956904D01*
X64884285Y-61918809D01*
X64846190Y-61880714D01*
X61658571Y-61728333D02*
X62039523Y-61728333D01*
X61582380Y-61956904D02*
X61849047Y-61156904D01*
X62115714Y-61956904D01*
X62344285Y-61233095D02*
X62382380Y-61195000D01*
X62458571Y-61156904D01*
X62649047Y-61156904D01*
X62725238Y-61195000D01*
X62763333Y-61233095D01*
X62801428Y-61309285D01*
X62801428Y-61385476D01*
X62763333Y-61499761D01*
X62306190Y-61956904D01*
X62801428Y-61956904D01*
X59753571Y-61728333D02*
X60134523Y-61728333D01*
X59677380Y-61956904D02*
X59944047Y-61156904D01*
X60210714Y-61956904D01*
X60896428Y-61956904D02*
X60439285Y-61956904D01*
X60667857Y-61956904D02*
X60667857Y-61156904D01*
X60591666Y-61271190D01*
X60515476Y-61347380D01*
X60439285Y-61385476D01*
X54800571Y-63506333D02*
X55181523Y-63506333D01*
X54724380Y-63734904D02*
X54991047Y-62934904D01*
X55257714Y-63734904D01*
X55676761Y-62934904D02*
X55752952Y-62934904D01*
X55829142Y-62973000D01*
X55867238Y-63011095D01*
X55905333Y-63087285D01*
X55943428Y-63239666D01*
X55943428Y-63430142D01*
X55905333Y-63582523D01*
X55867238Y-63658714D01*
X55829142Y-63696809D01*
X55752952Y-63734904D01*
X55676761Y-63734904D01*
X55600571Y-63696809D01*
X55562476Y-63658714D01*
X55524380Y-63582523D01*
X55486285Y-63430142D01*
X55486285Y-63239666D01*
X55524380Y-63087285D01*
X55562476Y-63011095D01*
X55600571Y-62973000D01*
X55676761Y-62934904D01*
D11*
X54610000Y-64770000D02*
X54610000Y-46990000D01*
X101600000Y-64770000D02*
X54610000Y-64770000D01*
X101600000Y-46990000D02*
X101600000Y-64770000D01*
X54610000Y-46990000D02*
X101600000Y-46990000D01*
D10*
X62123339Y-56616600D02*
G75*
G03X62123339Y-56616600I-172739J0D01*
G01*
D12*
X62585600Y-56097700D02*
X62738000Y-56248300D01*
X62738000Y-56286400D02*
X62738000Y-57289700D01*
X62598300Y-57454800D02*
X62738000Y-57315100D01*
X61950600Y-56845200D02*
X61950600Y-57289700D01*
X63093600Y-56095900D02*
X63093600Y-57277000D01*
X63093600Y-57277000D02*
X63271400Y-57442100D01*
X63271400Y-57442100D02*
X63550800Y-57442100D01*
D10*
X63952139Y-57454800D02*
G75*
G03X63952139Y-57454800I-172739J0D01*
G01*
D12*
X63779400Y-56311800D02*
X63779400Y-57023000D01*
D10*
X63952139Y-56083200D02*
G75*
G03X63952139Y-56083200I-172739J0D01*
G01*
X64523639Y-57454800D02*
G75*
G03X64523639Y-57454800I-172739J0D01*
G01*
D12*
X64350900Y-57238900D02*
X64350900Y-56070500D01*
X64350900Y-56070500D02*
X64579500Y-56070500D01*
X64579500Y-56070500D02*
X65024000Y-56515000D01*
X65024000Y-56515000D02*
X65024000Y-56718200D01*
X65024000Y-56540400D02*
X65506600Y-56070500D01*
D10*
X65196739Y-56946800D02*
G75*
G03X65196739Y-56946800I-172739J0D01*
G01*
D12*
X65506600Y-56070500D02*
X65722500Y-56070500D01*
X65722500Y-56070500D02*
X65722500Y-57200800D01*
D10*
X65895239Y-57454800D02*
G75*
G03X65895239Y-57454800I-172739J0D01*
G01*
X68028839Y-57467500D02*
G75*
G03X68028839Y-57467500I-172739J0D01*
G01*
D12*
X67741800Y-57302400D02*
X67449700Y-57010300D01*
X67449700Y-57010300D02*
X67259200Y-57010300D01*
X67259200Y-57010300D02*
X66751200Y-57518300D01*
X66751200Y-57518300D02*
X66357500Y-57518300D01*
X66357500Y-57518300D02*
X66192400Y-57340500D01*
X66192400Y-57340500D02*
X66192400Y-56769000D01*
X66192400Y-56273700D02*
X66370200Y-56095900D01*
X66192400Y-56781700D02*
X66192400Y-56273700D01*
X66370200Y-56095900D02*
X66763900Y-56095900D01*
X66763900Y-56095900D02*
X67259200Y-56591200D01*
X67259200Y-56591200D02*
X67462400Y-56591200D01*
X67462400Y-56591200D02*
X67716400Y-56337200D01*
D10*
X68041539Y-56159400D02*
G75*
G03X68041539Y-56159400I-172739J0D01*
G01*
D12*
X66624200Y-56769000D02*
X66192400Y-56769000D01*
D10*
X67000139Y-56769000D02*
G75*
G03X67000139Y-56769000I-172739J0D01*
G01*
D12*
X62103000Y-56095900D02*
X62585600Y-56095900D01*
X61950600Y-56248300D02*
X62103000Y-56095900D01*
X61950600Y-56413400D02*
X61950600Y-56248300D01*
X62103000Y-57454800D02*
X61950600Y-57315100D01*
X62598300Y-57454800D02*
X62103000Y-57454800D01*
D13*
X62992000Y-55994300D02*
X62992000Y-57289700D01*
X63093600Y-55994300D02*
X62992000Y-55994300D01*
X62992000Y-57315100D02*
X63233300Y-57543700D01*
X62992000Y-57302400D02*
X62992000Y-57315100D01*
X62992000Y-57289700D02*
X62992000Y-57302400D01*
X63004700Y-57327800D02*
X62992000Y-57302400D01*
X63233300Y-57543700D02*
X63550800Y-57543700D01*
X63246000Y-57543700D02*
X63233300Y-57531000D01*
X63195200Y-55994300D02*
X63195200Y-57251600D01*
X63093600Y-55994300D02*
X63195200Y-55994300D01*
D14*
X63019940Y-56024780D02*
X63068200Y-56024780D01*
X63116460Y-56027320D02*
X63164720Y-56027320D01*
D15*
X62999620Y-55996840D02*
X62999620Y-56070500D01*
X63185040Y-55996840D02*
X63185040Y-56075580D01*
X63873380Y-57122060D02*
X63682880Y-57122060D01*
X63873380Y-57025540D02*
X63873380Y-57122060D01*
X63682880Y-57122060D02*
X63682880Y-56299100D01*
X63687960Y-57109360D02*
X63870840Y-57109360D01*
X63685420Y-57096660D02*
X63868300Y-57096660D01*
X63685420Y-57083960D02*
X63868300Y-57083960D01*
X63685420Y-57071260D02*
X63870840Y-57071260D01*
X64256920Y-55976520D02*
X64584580Y-55976520D01*
X64256920Y-56073040D02*
X64256920Y-55976520D01*
X64310260Y-55989220D02*
X64264540Y-55989220D01*
X64267080Y-55981600D02*
X64267080Y-56022240D01*
X64269620Y-56001920D02*
X64284860Y-56001920D01*
X65816480Y-55976520D02*
X65816480Y-56073040D01*
X65730120Y-55976520D02*
X65816480Y-55976520D01*
X65770760Y-55986680D02*
X65808860Y-55986680D01*
X65806320Y-55991760D02*
X65806320Y-56022240D01*
X65783460Y-55996840D02*
X65803780Y-55996840D01*
X65798700Y-55994300D02*
X65798700Y-56009540D01*
D10*
X79586155Y-60130000D02*
G75*
G03X79586155Y-60130000I-206155J0D01*
G01*
D11*
X82042000Y-55499000D02*
X83058000Y-55499000D01*
X82042000Y-57023000D02*
X83058000Y-57023000D01*
X82042000Y-55118000D02*
X83058000Y-55118000D01*
X82042000Y-53594000D02*
X83058000Y-53594000D01*
X82042000Y-58928000D02*
X83058000Y-58928000D01*
X82042000Y-57404000D02*
X83058000Y-57404000D01*
X67818000Y-53467000D02*
X66802000Y-53467000D01*
X67818000Y-51943000D02*
X66802000Y-51943000D01*
X62992000Y-53848000D02*
X64008000Y-53848000D01*
X62992000Y-55372000D02*
X64008000Y-55372000D01*
X67818000Y-53848000D02*
X66802000Y-53848000D01*
X67818000Y-55372000D02*
X66802000Y-55372000D01*
X62992000Y-53467000D02*
X64008000Y-53467000D01*
X62992000Y-51943000D02*
X64008000Y-51943000D01*
X97472500Y-47688500D02*
X98488500Y-47688500D01*
X97472500Y-49212500D02*
X98488500Y-49212500D01*
X97536000Y-57404000D02*
X96520000Y-57404000D01*
X97536000Y-58928000D02*
X96520000Y-58928000D01*
X97536000Y-60706000D02*
X96520000Y-60706000D01*
X97536000Y-59182000D02*
X96520000Y-59182000D01*
X90779600Y-60401200D02*
X90779600Y-59385200D01*
X89255600Y-60401200D02*
X89255600Y-59385200D01*
D10*
X90561500Y-62386500D02*
X93461500Y-62386500D01*
X93461500Y-64486500D02*
X90561500Y-64486500D01*
X91401900Y-62420500D02*
X91401900Y-64452500D01*
X91655900Y-62420500D02*
X91655900Y-64401700D01*
X96621600Y-56896000D02*
X96621600Y-54914800D01*
X96875600Y-56896000D02*
X96875600Y-54864000D01*
X94816000Y-54830000D02*
X97716000Y-54830000D01*
X97716000Y-56930000D02*
X94816000Y-56930000D01*
D11*
X98933000Y-58547000D02*
X98933000Y-59563000D01*
X100457000Y-58547000D02*
X100457000Y-59563000D01*
D16*
X87439500Y-55148500D02*
X88487500Y-55148500D01*
X94137500Y-55148500D02*
X94137500Y-48450500D01*
X94137500Y-48450500D02*
X93535500Y-47848500D01*
X88487500Y-47848500D02*
X86837500Y-47848500D01*
X86837500Y-47848500D02*
X86837500Y-54546500D01*
X86837500Y-54546500D02*
X87439500Y-55148500D01*
X93535500Y-47848500D02*
X92487500Y-47848500D01*
X92487500Y-55148500D02*
X94137500Y-55148500D01*
D11*
X100457000Y-56070500D02*
X100457000Y-55054500D01*
X98933000Y-56070500D02*
X98933000Y-55054500D01*
X98933000Y-52514500D02*
X98933000Y-51498500D01*
X100457000Y-52514500D02*
X100457000Y-51498500D01*
X92557600Y-60401200D02*
X92557600Y-59385200D01*
X91033600Y-60401200D02*
X91033600Y-59385200D01*
X91414600Y-58115200D02*
X90398600Y-58115200D01*
X91414600Y-56591200D02*
X90398600Y-56591200D01*
D10*
X94483493Y-53017420D02*
G75*
G03X94483493Y-53017420I-158053J0D01*
G01*
D17*
X97561400Y-51069240D02*
X97561400Y-52689760D01*
X94716600Y-52689760D02*
X94716600Y-51069240D01*
X95712280Y-52689760D02*
X95618300Y-52689760D01*
X96659700Y-52689760D02*
X96565720Y-52689760D01*
X95712280Y-51071780D02*
X95618300Y-51071780D01*
X96659700Y-51071780D02*
X96565720Y-51071780D01*
D10*
X95372493Y-52128420D02*
G75*
G03X95372493Y-52128420I-158053J0D01*
G01*
D11*
X96088200Y-63893700D02*
X97218500Y-63893700D01*
X96088200Y-61087000D02*
X97218500Y-61087000D01*
D10*
X74168095Y-53173380D02*
X74168095Y-53982904D01*
X74215714Y-54078142D01*
X74263333Y-54125761D01*
X74358571Y-54173380D01*
X74549047Y-54173380D01*
X74644285Y-54125761D01*
X74691904Y-54078142D01*
X74739523Y-53982904D01*
X74739523Y-53173380D01*
X75739523Y-54173380D02*
X75168095Y-54173380D01*
X75453809Y-54173380D02*
X75453809Y-53173380D01*
X75358571Y-53316238D01*
X75263333Y-53411476D01*
X75168095Y-53459095D01*
X79606000Y-56582428D02*
X79563142Y-56625285D01*
X79434571Y-56668142D01*
X79348857Y-56668142D01*
X79220285Y-56625285D01*
X79134571Y-56539571D01*
X79091714Y-56453857D01*
X79048857Y-56282428D01*
X79048857Y-56153857D01*
X79091714Y-55982428D01*
X79134571Y-55896714D01*
X79220285Y-55811000D01*
X79348857Y-55768142D01*
X79434571Y-55768142D01*
X79563142Y-55811000D01*
X79606000Y-55853857D01*
X79906000Y-55768142D02*
X80463142Y-55768142D01*
X80163142Y-56111000D01*
X80291714Y-56111000D01*
X80377428Y-56153857D01*
X80420285Y-56196714D01*
X80463142Y-56282428D01*
X80463142Y-56496714D01*
X80420285Y-56582428D01*
X80377428Y-56625285D01*
X80291714Y-56668142D01*
X80034571Y-56668142D01*
X79948857Y-56625285D01*
X79906000Y-56582428D01*
X79606000Y-54677428D02*
X79563142Y-54720285D01*
X79434571Y-54763142D01*
X79348857Y-54763142D01*
X79220285Y-54720285D01*
X79134571Y-54634571D01*
X79091714Y-54548857D01*
X79048857Y-54377428D01*
X79048857Y-54248857D01*
X79091714Y-54077428D01*
X79134571Y-53991714D01*
X79220285Y-53906000D01*
X79348857Y-53863142D01*
X79434571Y-53863142D01*
X79563142Y-53906000D01*
X79606000Y-53948857D01*
X80377428Y-54163142D02*
X80377428Y-54763142D01*
X80163142Y-53820285D02*
X79948857Y-54463142D01*
X80506000Y-54463142D01*
X79606000Y-58487428D02*
X79563142Y-58530285D01*
X79434571Y-58573142D01*
X79348857Y-58573142D01*
X79220285Y-58530285D01*
X79134571Y-58444571D01*
X79091714Y-58358857D01*
X79048857Y-58187428D01*
X79048857Y-58058857D01*
X79091714Y-57887428D01*
X79134571Y-57801714D01*
X79220285Y-57716000D01*
X79348857Y-57673142D01*
X79434571Y-57673142D01*
X79563142Y-57716000D01*
X79606000Y-57758857D01*
X80420285Y-57673142D02*
X79991714Y-57673142D01*
X79948857Y-58101714D01*
X79991714Y-58058857D01*
X80077428Y-58016000D01*
X80291714Y-58016000D01*
X80377428Y-58058857D01*
X80420285Y-58101714D01*
X80463142Y-58187428D01*
X80463142Y-58401714D01*
X80420285Y-58487428D01*
X80377428Y-58530285D01*
X80291714Y-58573142D01*
X80077428Y-58573142D01*
X79991714Y-58530285D01*
X79948857Y-58487428D01*
X69827000Y-53026428D02*
X69784142Y-53069285D01*
X69655571Y-53112142D01*
X69569857Y-53112142D01*
X69441285Y-53069285D01*
X69355571Y-52983571D01*
X69312714Y-52897857D01*
X69269857Y-52726428D01*
X69269857Y-52597857D01*
X69312714Y-52426428D01*
X69355571Y-52340714D01*
X69441285Y-52255000D01*
X69569857Y-52212142D01*
X69655571Y-52212142D01*
X69784142Y-52255000D01*
X69827000Y-52297857D01*
X70598428Y-52212142D02*
X70427000Y-52212142D01*
X70341285Y-52255000D01*
X70298428Y-52297857D01*
X70212714Y-52426428D01*
X70169857Y-52597857D01*
X70169857Y-52940714D01*
X70212714Y-53026428D01*
X70255571Y-53069285D01*
X70341285Y-53112142D01*
X70512714Y-53112142D01*
X70598428Y-53069285D01*
X70641285Y-53026428D01*
X70684142Y-52940714D01*
X70684142Y-52726428D01*
X70641285Y-52640714D01*
X70598428Y-52597857D01*
X70512714Y-52555000D01*
X70341285Y-52555000D01*
X70255571Y-52597857D01*
X70212714Y-52640714D01*
X70169857Y-52726428D01*
X60937000Y-54931428D02*
X60894142Y-54974285D01*
X60765571Y-55017142D01*
X60679857Y-55017142D01*
X60551285Y-54974285D01*
X60465571Y-54888571D01*
X60422714Y-54802857D01*
X60379857Y-54631428D01*
X60379857Y-54502857D01*
X60422714Y-54331428D01*
X60465571Y-54245714D01*
X60551285Y-54160000D01*
X60679857Y-54117142D01*
X60765571Y-54117142D01*
X60894142Y-54160000D01*
X60937000Y-54202857D01*
X61794142Y-55017142D02*
X61279857Y-55017142D01*
X61537000Y-55017142D02*
X61537000Y-54117142D01*
X61451285Y-54245714D01*
X61365571Y-54331428D01*
X61279857Y-54374285D01*
X69827000Y-54931428D02*
X69784142Y-54974285D01*
X69655571Y-55017142D01*
X69569857Y-55017142D01*
X69441285Y-54974285D01*
X69355571Y-54888571D01*
X69312714Y-54802857D01*
X69269857Y-54631428D01*
X69269857Y-54502857D01*
X69312714Y-54331428D01*
X69355571Y-54245714D01*
X69441285Y-54160000D01*
X69569857Y-54117142D01*
X69655571Y-54117142D01*
X69784142Y-54160000D01*
X69827000Y-54202857D01*
X70169857Y-54202857D02*
X70212714Y-54160000D01*
X70298428Y-54117142D01*
X70512714Y-54117142D01*
X70598428Y-54160000D01*
X70641285Y-54202857D01*
X70684142Y-54288571D01*
X70684142Y-54374285D01*
X70641285Y-54502857D01*
X70127000Y-55017142D01*
X70684142Y-55017142D01*
X60937000Y-53112142D02*
X60637000Y-52683571D01*
X60422714Y-53112142D02*
X60422714Y-52212142D01*
X60765571Y-52212142D01*
X60851285Y-52255000D01*
X60894142Y-52297857D01*
X60937000Y-52383571D01*
X60937000Y-52512142D01*
X60894142Y-52597857D01*
X60851285Y-52640714D01*
X60765571Y-52683571D01*
X60422714Y-52683571D01*
X61279857Y-52297857D02*
X61322714Y-52255000D01*
X61408428Y-52212142D01*
X61622714Y-52212142D01*
X61708428Y-52255000D01*
X61751285Y-52297857D01*
X61794142Y-52383571D01*
X61794142Y-52469285D01*
X61751285Y-52597857D01*
X61237000Y-53112142D01*
X61794142Y-53112142D01*
X94862714Y-48799714D02*
X94824619Y-48837809D01*
X94710333Y-48875904D01*
X94634142Y-48875904D01*
X94519857Y-48837809D01*
X94443666Y-48761619D01*
X94405571Y-48685428D01*
X94367476Y-48533047D01*
X94367476Y-48418761D01*
X94405571Y-48266380D01*
X94443666Y-48190190D01*
X94519857Y-48114000D01*
X94634142Y-48075904D01*
X94710333Y-48075904D01*
X94824619Y-48114000D01*
X94862714Y-48152095D01*
X95624619Y-48875904D02*
X95167476Y-48875904D01*
X95396047Y-48875904D02*
X95396047Y-48075904D01*
X95319857Y-48190190D01*
X95243666Y-48266380D01*
X95167476Y-48304476D01*
X96081761Y-48418761D02*
X96005571Y-48380666D01*
X95967476Y-48342571D01*
X95929380Y-48266380D01*
X95929380Y-48228285D01*
X95967476Y-48152095D01*
X96005571Y-48114000D01*
X96081761Y-48075904D01*
X96234142Y-48075904D01*
X96310333Y-48114000D01*
X96348428Y-48152095D01*
X96386523Y-48228285D01*
X96386523Y-48266380D01*
X96348428Y-48342571D01*
X96310333Y-48380666D01*
X96234142Y-48418761D01*
X96081761Y-48418761D01*
X96005571Y-48456857D01*
X95967476Y-48494952D01*
X95929380Y-48571142D01*
X95929380Y-48723523D01*
X95967476Y-48799714D01*
X96005571Y-48837809D01*
X96081761Y-48875904D01*
X96234142Y-48875904D01*
X96310333Y-48837809D01*
X96348428Y-48799714D01*
X96386523Y-48723523D01*
X96386523Y-48571142D01*
X96348428Y-48494952D01*
X96310333Y-48456857D01*
X96234142Y-48418761D01*
X93846714Y-58832714D02*
X93808619Y-58870809D01*
X93694333Y-58908904D01*
X93618142Y-58908904D01*
X93503857Y-58870809D01*
X93427666Y-58794619D01*
X93389571Y-58718428D01*
X93351476Y-58566047D01*
X93351476Y-58451761D01*
X93389571Y-58299380D01*
X93427666Y-58223190D01*
X93503857Y-58147000D01*
X93618142Y-58108904D01*
X93694333Y-58108904D01*
X93808619Y-58147000D01*
X93846714Y-58185095D01*
X94608619Y-58908904D02*
X94151476Y-58908904D01*
X94380047Y-58908904D02*
X94380047Y-58108904D01*
X94303857Y-58223190D01*
X94227666Y-58299380D01*
X94151476Y-58337476D01*
X94989571Y-58908904D02*
X95141952Y-58908904D01*
X95218142Y-58870809D01*
X95256238Y-58832714D01*
X95332428Y-58718428D01*
X95370523Y-58566047D01*
X95370523Y-58261285D01*
X95332428Y-58185095D01*
X95294333Y-58147000D01*
X95218142Y-58108904D01*
X95065761Y-58108904D01*
X94989571Y-58147000D01*
X94951476Y-58185095D01*
X94913380Y-58261285D01*
X94913380Y-58451761D01*
X94951476Y-58527952D01*
X94989571Y-58566047D01*
X95065761Y-58604142D01*
X95218142Y-58604142D01*
X95294333Y-58566047D01*
X95332428Y-58527952D01*
X95370523Y-58451761D01*
X93846714Y-60229714D02*
X93808619Y-60267809D01*
X93694333Y-60305904D01*
X93618142Y-60305904D01*
X93503857Y-60267809D01*
X93427666Y-60191619D01*
X93389571Y-60115428D01*
X93351476Y-59963047D01*
X93351476Y-59848761D01*
X93389571Y-59696380D01*
X93427666Y-59620190D01*
X93503857Y-59544000D01*
X93618142Y-59505904D01*
X93694333Y-59505904D01*
X93808619Y-59544000D01*
X93846714Y-59582095D01*
X94151476Y-59582095D02*
X94189571Y-59544000D01*
X94265761Y-59505904D01*
X94456238Y-59505904D01*
X94532428Y-59544000D01*
X94570523Y-59582095D01*
X94608619Y-59658285D01*
X94608619Y-59734476D01*
X94570523Y-59848761D01*
X94113380Y-60305904D01*
X94608619Y-60305904D01*
X95370523Y-60305904D02*
X94913380Y-60305904D01*
X95141952Y-60305904D02*
X95141952Y-59505904D01*
X95065761Y-59620190D01*
X94989571Y-59696380D01*
X94913380Y-59734476D01*
X88510228Y-57779371D02*
X88553085Y-57822228D01*
X88595942Y-57950800D01*
X88595942Y-58036514D01*
X88553085Y-58165085D01*
X88467371Y-58250800D01*
X88381657Y-58293657D01*
X88210228Y-58336514D01*
X88081657Y-58336514D01*
X87910228Y-58293657D01*
X87824514Y-58250800D01*
X87738800Y-58165085D01*
X87695942Y-58036514D01*
X87695942Y-57950800D01*
X87738800Y-57822228D01*
X87781657Y-57779371D01*
X87781657Y-57436514D02*
X87738800Y-57393657D01*
X87695942Y-57307942D01*
X87695942Y-57093657D01*
X87738800Y-57007942D01*
X87781657Y-56965085D01*
X87867371Y-56922228D01*
X87953085Y-56922228D01*
X88081657Y-56965085D01*
X88595942Y-57479371D01*
X88595942Y-56922228D01*
X87781657Y-56579371D02*
X87738800Y-56536514D01*
X87695942Y-56450800D01*
X87695942Y-56236514D01*
X87738800Y-56150800D01*
X87781657Y-56107942D01*
X87867371Y-56065085D01*
X87953085Y-56065085D01*
X88081657Y-56107942D01*
X88595942Y-56622228D01*
X88595942Y-56065085D01*
X92690904Y-63963476D02*
X91890904Y-63963476D01*
X91890904Y-63773000D01*
X91929000Y-63658714D01*
X92005190Y-63582523D01*
X92081380Y-63544428D01*
X92233761Y-63506333D01*
X92348047Y-63506333D01*
X92500428Y-63544428D01*
X92576619Y-63582523D01*
X92652809Y-63658714D01*
X92690904Y-63773000D01*
X92690904Y-63963476D01*
X92690904Y-62744428D02*
X92690904Y-63201571D01*
X92690904Y-62973000D02*
X91890904Y-62973000D01*
X92005190Y-63049190D01*
X92081380Y-63125380D01*
X92119476Y-63201571D01*
X95523095Y-55289523D02*
X96323095Y-55289523D01*
X96323095Y-55480000D01*
X96285000Y-55594285D01*
X96208809Y-55670476D01*
X96132619Y-55708571D01*
X95980238Y-55746666D01*
X95865952Y-55746666D01*
X95713571Y-55708571D01*
X95637380Y-55670476D01*
X95561190Y-55594285D01*
X95523095Y-55480000D01*
X95523095Y-55289523D01*
X96323095Y-56013333D02*
X96323095Y-56508571D01*
X96018333Y-56241904D01*
X96018333Y-56356190D01*
X95980238Y-56432380D01*
X95942142Y-56470476D01*
X95865952Y-56508571D01*
X95675476Y-56508571D01*
X95599285Y-56470476D01*
X95561190Y-56432380D01*
X95523095Y-56356190D01*
X95523095Y-56127619D01*
X95561190Y-56051428D01*
X95599285Y-56013333D01*
X99752142Y-60928333D02*
X99752142Y-60661666D01*
X99333095Y-60661666D02*
X100133095Y-60661666D01*
X100133095Y-61042619D01*
X99752142Y-61614047D02*
X99714047Y-61728333D01*
X99675952Y-61766428D01*
X99599761Y-61804523D01*
X99485476Y-61804523D01*
X99409285Y-61766428D01*
X99371190Y-61728333D01*
X99333095Y-61652142D01*
X99333095Y-61347380D01*
X100133095Y-61347380D01*
X100133095Y-61614047D01*
X100095000Y-61690238D01*
X100056904Y-61728333D01*
X99980714Y-61766428D01*
X99904523Y-61766428D01*
X99828333Y-61728333D01*
X99790238Y-61690238D01*
X99752142Y-61614047D01*
X99752142Y-61347380D01*
X99333095Y-62566428D02*
X99333095Y-62109285D01*
X99333095Y-62337857D02*
X100133095Y-62337857D01*
X100018809Y-62261666D01*
X99942619Y-62185476D01*
X99904523Y-62109285D01*
X85685333Y-54173380D02*
X85209142Y-54173380D01*
X85209142Y-53173380D01*
X86542476Y-54173380D02*
X85971047Y-54173380D01*
X86256761Y-54173380D02*
X86256761Y-53173380D01*
X86161523Y-53316238D01*
X86066285Y-53411476D01*
X85971047Y-53459095D01*
X98659904Y-54108285D02*
X98278952Y-54374952D01*
X98659904Y-54565428D02*
X97859904Y-54565428D01*
X97859904Y-54260666D01*
X97898000Y-54184476D01*
X97936095Y-54146380D01*
X98012285Y-54108285D01*
X98126571Y-54108285D01*
X98202761Y-54146380D01*
X98240857Y-54184476D01*
X98278952Y-54260666D01*
X98278952Y-54565428D01*
X98659904Y-53346380D02*
X98659904Y-53803523D01*
X98659904Y-53574952D02*
X97859904Y-53574952D01*
X97974190Y-53651142D01*
X98050380Y-53727333D01*
X98088476Y-53803523D01*
X97859904Y-53079714D02*
X97859904Y-52546380D01*
X98659904Y-52889238D01*
X100818904Y-49790285D02*
X100437952Y-50056952D01*
X100818904Y-50247428D02*
X100018904Y-50247428D01*
X100018904Y-49942666D01*
X100057000Y-49866476D01*
X100095095Y-49828380D01*
X100171285Y-49790285D01*
X100285571Y-49790285D01*
X100361761Y-49828380D01*
X100399857Y-49866476D01*
X100437952Y-49942666D01*
X100437952Y-50247428D01*
X100818904Y-49028380D02*
X100818904Y-49485523D01*
X100818904Y-49256952D02*
X100018904Y-49256952D01*
X100133190Y-49333142D01*
X100209380Y-49409333D01*
X100247476Y-49485523D01*
X100361761Y-48571238D02*
X100323666Y-48647428D01*
X100285571Y-48685523D01*
X100209380Y-48723619D01*
X100171285Y-48723619D01*
X100095095Y-48685523D01*
X100057000Y-48647428D01*
X100018904Y-48571238D01*
X100018904Y-48418857D01*
X100057000Y-48342666D01*
X100095095Y-48304571D01*
X100171285Y-48266476D01*
X100209380Y-48266476D01*
X100285571Y-48304571D01*
X100323666Y-48342666D01*
X100361761Y-48418857D01*
X100361761Y-48571238D01*
X100399857Y-48647428D01*
X100437952Y-48685523D01*
X100514142Y-48723619D01*
X100666523Y-48723619D01*
X100742714Y-48685523D01*
X100780809Y-48647428D01*
X100818904Y-48571238D01*
X100818904Y-48418857D01*
X100780809Y-48342666D01*
X100742714Y-48304571D01*
X100666523Y-48266476D01*
X100514142Y-48266476D01*
X100437952Y-48304571D01*
X100399857Y-48342666D01*
X100361761Y-48418857D01*
X92703714Y-62083904D02*
X92437047Y-61702952D01*
X92246571Y-62083904D02*
X92246571Y-61283904D01*
X92551333Y-61283904D01*
X92627523Y-61322000D01*
X92665619Y-61360095D01*
X92703714Y-61436285D01*
X92703714Y-61550571D01*
X92665619Y-61626761D01*
X92627523Y-61664857D01*
X92551333Y-61702952D01*
X92246571Y-61702952D01*
X93008476Y-61360095D02*
X93046571Y-61322000D01*
X93122761Y-61283904D01*
X93313238Y-61283904D01*
X93389428Y-61322000D01*
X93427523Y-61360095D01*
X93465619Y-61436285D01*
X93465619Y-61512476D01*
X93427523Y-61626761D01*
X92970380Y-62083904D01*
X93465619Y-62083904D01*
X93732285Y-61283904D02*
X94265619Y-61283904D01*
X93922761Y-62083904D01*
X93084714Y-57765904D02*
X92818047Y-57384952D01*
X92627571Y-57765904D02*
X92627571Y-56965904D01*
X92932333Y-56965904D01*
X93008523Y-57004000D01*
X93046619Y-57042095D01*
X93084714Y-57118285D01*
X93084714Y-57232571D01*
X93046619Y-57308761D01*
X93008523Y-57346857D01*
X92932333Y-57384952D01*
X92627571Y-57384952D01*
X93389476Y-57042095D02*
X93427571Y-57004000D01*
X93503761Y-56965904D01*
X93694238Y-56965904D01*
X93770428Y-57004000D01*
X93808523Y-57042095D01*
X93846619Y-57118285D01*
X93846619Y-57194476D01*
X93808523Y-57308761D01*
X93351380Y-57765904D01*
X93846619Y-57765904D01*
X94303761Y-57308761D02*
X94227571Y-57270666D01*
X94189476Y-57232571D01*
X94151380Y-57156380D01*
X94151380Y-57118285D01*
X94189476Y-57042095D01*
X94227571Y-57004000D01*
X94303761Y-56965904D01*
X94456142Y-56965904D01*
X94532333Y-57004000D01*
X94570428Y-57042095D01*
X94608523Y-57118285D01*
X94608523Y-57156380D01*
X94570428Y-57232571D01*
X94532333Y-57270666D01*
X94456142Y-57308761D01*
X94303761Y-57308761D01*
X94227571Y-57346857D01*
X94189476Y-57384952D01*
X94151380Y-57461142D01*
X94151380Y-57613523D01*
X94189476Y-57689714D01*
X94227571Y-57727809D01*
X94303761Y-57765904D01*
X94456142Y-57765904D01*
X94532333Y-57727809D01*
X94570428Y-57689714D01*
X94608523Y-57613523D01*
X94608523Y-57461142D01*
X94570428Y-57384952D01*
X94532333Y-57346857D01*
X94456142Y-57308761D01*
X98609095Y-49809476D02*
X97961476Y-49809476D01*
X97885285Y-49847571D01*
X97847190Y-49885666D01*
X97809095Y-49961857D01*
X97809095Y-50114238D01*
X97847190Y-50190428D01*
X97885285Y-50228523D01*
X97961476Y-50266619D01*
X98609095Y-50266619D01*
X98532904Y-50609476D02*
X98571000Y-50647571D01*
X98609095Y-50723761D01*
X98609095Y-50914238D01*
X98571000Y-50990428D01*
X98532904Y-51028523D01*
X98456714Y-51066619D01*
X98380523Y-51066619D01*
X98266238Y-51028523D01*
X97809095Y-50571380D01*
X97809095Y-51066619D01*
X99212476Y-63315904D02*
X99212476Y-63963523D01*
X99250571Y-64039714D01*
X99288666Y-64077809D01*
X99364857Y-64115904D01*
X99517238Y-64115904D01*
X99593428Y-64077809D01*
X99631523Y-64039714D01*
X99669619Y-63963523D01*
X99669619Y-63315904D01*
X99974380Y-63315904D02*
X100469619Y-63315904D01*
X100202952Y-63620666D01*
X100317238Y-63620666D01*
X100393428Y-63658761D01*
X100431523Y-63696857D01*
X100469619Y-63773047D01*
X100469619Y-63963523D01*
X100431523Y-64039714D01*
X100393428Y-64077809D01*
X100317238Y-64115904D01*
X100088666Y-64115904D01*
X100012476Y-64077809D01*
X99974380Y-64039714D01*
M02*
