M48
;DRILL file {KiCad (2017-11-22 revision 78366f8f0)-master} date Fri Jan  5 15:25:20 2018
;FORMAT={-:-/ absolute / inch / decimal}
FMAT,2
INCH,TZ
T1C0.016
T2C0.028
T3C0.039
%
G90
G05
M72
T1
X2.395Y-2.33
X2.3973Y-2.2715
X2.9583Y-2.1617
X2.9641Y-2.1236
X2.9657Y-2.0565
X2.9971Y-2.0827
X3.175Y-2.22
X3.37Y-2.179
X3.564Y-1.955
T2
X3.51Y-2.445
X3.95Y-1.95
X3.435Y-1.89
X2.9Y-2.44
X3.16Y-2.325
X3.62Y-2.02
X2.575Y-2.15
X3.055Y-2.42
X2.35Y-1.9
X2.68Y-2.25
X3.216Y-2.022
X2.925Y-2.185
X3.503Y-2.323
X3.725Y-2.325
X2.99Y-2.02
X3.36Y-2.32
X3.45Y-2.175
X2.8Y-2.44
X3.33Y-2.215
X3.65Y-2.2
X3.56Y-2.06
X2.903Y-2.046
X2.925Y-2.28
X3.35Y-2.022
X3.5Y-2.02
X3.785Y-2.042
X3.33Y-2.14
X2.435Y-2.395
X2.614Y-2.034
X2.603Y-1.974
X2.6Y-2.325
X3.16Y-2.42
T3
X2.45Y-1.9
X2.55Y-1.9
X2.65Y-1.9
X2.75Y-1.9
X2.85Y-1.9
X2.95Y-1.9
X3.05Y-1.9
X3.15Y-1.9
X3.25Y-1.9
X3.35Y-1.9
X2.25Y-2.5
X2.35Y-2.5
X2.45Y-2.5
X2.55Y-2.5
X2.65Y-2.5
X2.75Y-2.5
X2.85Y-2.5
X2.95Y-2.5
X3.05Y-2.5
X3.15Y-2.5
X3.25Y-2.5
X3.35Y-2.5
X3.45Y-2.5
T0
M30
